<svg xmlns:xlink="http://www.w3.org/1999/xlink" height="800" width="800" xmlns="http://www.w3.org/2000/svg" version="1.1"><desc>Created with Highcharts 3.0.7</desc><defs><clipPath id="highcharts-9"><rect height="316" width="670" y="0" x="0" fill="none"></rect></clipPath></defs><rect height="800" width="800" y="0" x="0" fill="#FFFFFF" ry="5" rx="5"></rect><g  class="highcharts-grid"></g><g  class="highcharts-grid"><path opacity="1"  stroke-width="1" stroke="#C0C0C0" d="M 120 355.5 L 790 355.5" fill="none"></path><path opacity="1"  stroke-width="1" stroke="#C0C0C0" d="M 120 324.5 L 790 324.5" fill="none"></path><path opacity="1"  stroke-width="1" stroke="#C0C0C0" d="M 120 292.5 L 790 292.5" fill="none"></path><path opacity="1"  stroke-width="1" stroke="#C0C0C0" d="M 120 261.5 L 790 261.5" fill="none"></path><path opacity="1"  stroke-width="1" stroke="#C0C0C0" d="M 120 229.5 L 790 229.5" fill="none"></path><path opacity="1"  stroke-width="1" stroke="#C0C0C0" d="M 120 197.5 L 790 197.5" fill="none"></path><path opacity="1"  stroke-width="1" stroke="#C0C0C0" d="M 120 166.5 L 790 166.5" fill="none"></path><path opacity="1"  stroke-width="1" stroke="#C0C0C0" d="M 120 134.5 L 790 134.5" fill="none"></path><path opacity="1"  stroke-width="1" stroke="#C0C0C0" d="M 120 103.5 L 790 103.5" fill="none"></path><path opacity="1"  stroke-width="1" stroke="#C0C0C0" d="M 120 70.5 L 790 70.5" fill="none"></path><path opacity="1"  stroke-width="1" stroke="#C0C0C0" d="M 120 387.5 L 790 387.5" fill="none"></path></g><g  class="highcharts-axis"><path opacity="1" stroke-width="1" stroke="#C0D0E0" d="M 164.5 387 L 164.5 392" fill="none"></path><path opacity="1" stroke-width="1" stroke="#C0D0E0" d="M 186.5 387 L 186.5 392" fill="none"></path><path opacity="1" stroke-width="1" stroke="#C0D0E0" d="M 208.5 387 L 208.5 392" fill="none"></path><path opacity="1" stroke-width="1" stroke="#C0D0E0" d="M 231.5 387 L 231.5 392" fill="none"></path><path opacity="1" stroke-width="1" stroke="#C0D0E0" d="M 253.5 387 L 253.5 392" fill="none"></path><path opacity="1" stroke-width="1" stroke="#C0D0E0" d="M 275.5 387 L 275.5 392" fill="none"></path><path opacity="1" stroke-width="1" stroke="#C0D0E0" d="M 298.5 387 L 298.5 392" fill="none"></path><path opacity="1" stroke-width="1" stroke="#C0D0E0" d="M 320.5 387 L 320.5 392" fill="none"></path><path opacity="1" stroke-width="1" stroke="#C0D0E0" d="M 342.5 387 L 342.5 392" fill="none"></path><path opacity="1" stroke-width="1" stroke="#C0D0E0" d="M 365.5 387 L 365.5 392" fill="none"></path><path opacity="1" stroke-width="1" stroke="#C0D0E0" d="M 387.5 387 L 387.5 392" fill="none"></path><path opacity="1" stroke-width="1" stroke="#C0D0E0" d="M 409.5 387 L 409.5 392" fill="none"></path><path opacity="1" stroke-width="1" stroke="#C0D0E0" d="M 432.5 387 L 432.5 392" fill="none"></path><path opacity="1" stroke-width="1" stroke="#C0D0E0" d="M 454.5 387 L 454.5 392" fill="none"></path><path opacity="1" stroke-width="1" stroke="#C0D0E0" d="M 476.5 387 L 476.5 392" fill="none"></path><path opacity="1" stroke-width="1" stroke="#C0D0E0" d="M 499.5 387 L 499.5 392" fill="none"></path><path opacity="1" stroke-width="1" stroke="#C0D0E0" d="M 521.5 387 L 521.5 392" fill="none"></path><path opacity="1" stroke-width="1" stroke="#C0D0E0" d="M 543.5 387 L 543.5 392" fill="none"></path><path opacity="1" stroke-width="1" stroke="#C0D0E0" d="M 566.5 387 L 566.5 392" fill="none"></path><path opacity="1" stroke-width="1" stroke="#C0D0E0" d="M 588.5 387 L 588.5 392" fill="none"></path><path opacity="1" stroke-width="1" stroke="#C0D0E0" d="M 610.5 387 L 610.5 392" fill="none"></path><path opacity="1" stroke-width="1" stroke="#C0D0E0" d="M 633.5 387 L 633.5 392" fill="none"></path><path opacity="1" stroke-width="1" stroke="#C0D0E0" d="M 655.5 387 L 655.5 392" fill="none"></path><path opacity="1" stroke-width="1" stroke="#C0D0E0" d="M 677.5 387 L 677.5 392" fill="none"></path><path opacity="1" stroke-width="1" stroke="#C0D0E0" d="M 700.5 387 L 700.5 392" fill="none"></path><path opacity="1" stroke-width="1" stroke="#C0D0E0" d="M 722.5 387 L 722.5 392" fill="none"></path><path opacity="1" stroke-width="1" stroke="#C0D0E0" d="M 744.5 387 L 744.5 392" fill="none"></path><path opacity="1" stroke-width="1" stroke="#C0D0E0" d="M 767.5 387 L 767.5 392" fill="none"></path><path opacity="1" stroke-width="1" stroke="#C0D0E0" d="M 789.5 387 L 789.5 392" fill="none"></path><path opacity="1" stroke-width="1" stroke="#C0D0E0" d="M 141.5 387 L 141.5 392" fill="none"></path><path stroke-width="1" stroke="#C0D0E0" d="M 119.5 387 L 119.5 392" fill="none"></path><path visibility="visible"  stroke-width="1" stroke="#C0D0E0" d="M 120 387.5 L 790 387.5" fill="none"></path></g><g  class="highcharts-axis"><text visibility="visible" transform="translate(0,0) rotate(270 84.61666679382324 229)" text-anchor="middle"  style="font-family:'lucida grande', 'lucida sans unicode', verdana, arial, helvetica, sans-serif;font-size:12px;color:#4d759e;font-weight:bold;fill:#4d759e;" y="229" x="84.61666679382324"><tspan x="84.61666679382324">Values</tspan></text></g><g  class="highcharts-series-group"><g clip-path="url(#highcharts-9)" style="" transform="translate(120,71) scale(1 1)"  visibility="visible" class="highcharts-series highcharts-tracker"><rect ry="0" rx="0" height="121" width="5" y="196" x="6" fill="#2f7ed8"></rect><rect ry="0" rx="0" height="0" width="5" y="317" x="28" fill="#2f7ed8"></rect><rect ry="0" rx="0" height="0" width="5" y="317" x="50" fill="#2f7ed8"></rect><rect ry="0" rx="0" height="0" width="5" y="317" x="73" fill="#2f7ed8"></rect><rect ry="0" rx="0" height="0" width="5" y="317" x="95" fill="#2f7ed8"></rect><rect ry="0" rx="0" height="0" width="5" y="317" x="117" fill="#2f7ed8"></rect><rect ry="0" rx="0" height="0" width="5" y="317" x="140" fill="#2f7ed8"></rect><rect ry="0" rx="0" height="0" width="5" y="317" x="162" fill="#2f7ed8"></rect><rect ry="0" rx="0" height="0" width="5" y="317" x="184" fill="#2f7ed8"></rect><rect ry="0" rx="0" height="0" width="5" y="317" x="207" fill="#2f7ed8"></rect><rect ry="0" rx="0" height="0" width="5" y="317" x="229" fill="#2f7ed8"></rect><rect ry="0" rx="0" height="0" width="5" y="317" x="251" fill="#2f7ed8"></rect><rect ry="0" rx="0" height="0" width="5" y="317" x="274" fill="#2f7ed8"></rect><rect ry="0" rx="0" height="0" width="5" y="317" x="296" fill="#2f7ed8"></rect><rect ry="0" rx="0" height="0" width="5" y="317" x="318" fill="#2f7ed8"></rect><rect ry="0" rx="0" height="0" width="5" y="317" x="341" fill="#2f7ed8"></rect><rect ry="0" rx="0" height="0" width="5" y="317" x="363" fill="#2f7ed8"></rect><rect ry="0" rx="0" height="0" width="5" y="317" x="385" fill="#2f7ed8"></rect><rect ry="0" rx="0" height="0" width="5" y="317" x="408" fill="#2f7ed8"></rect><rect ry="0" rx="0" height="0" width="5" y="317" x="430" fill="#2f7ed8"></rect><rect ry="0" rx="0" height="0" width="5" y="317" x="452" fill="#2f7ed8"></rect><rect ry="0" rx="0" height="0" width="5" y="317" x="475" fill="#2f7ed8"></rect><rect ry="0" rx="0" height="0" width="5" y="317" x="497" fill="#2f7ed8"></rect><rect ry="0" rx="0" height="0" width="5" y="317" x="519" fill="#2f7ed8"></rect><rect ry="0" rx="0" height="0" width="5" y="317" x="542" fill="#2f7ed8"></rect><rect ry="0" rx="0" height="0" width="5" y="317" x="564" fill="#2f7ed8"></rect><rect ry="0" rx="0" height="0" width="5" y="317" x="586" fill="#2f7ed8"></rect><rect ry="0" rx="0" height="0" width="5" y="317" x="609" fill="#2f7ed8"></rect><rect ry="0" rx="0" height="0" width="5" y="317" x="631" fill="#2f7ed8"></rect><rect ry="0" rx="0" height="0" width="5" y="317" x="653" fill="#2f7ed8"></rect></g><g clip-path="none" transform="translate(120,71) scale(1 1)"  visibility="visible" class="highcharts-markers"></g><g clip-path="url(#highcharts-9)" style="" transform="translate(120,71) scale(1 1)"  visibility="visible" class="highcharts-series highcharts-tracker"><rect ry="0" rx="0" height="147" width="5" y="170" x="13" fill="#0d233a"></rect><rect ry="0" rx="0" height="0" width="5" y="317" x="35" fill="#0d233a"></rect><rect ry="0" rx="0" height="0" width="5" y="317" x="57" fill="#0d233a"></rect><rect ry="0" rx="0" height="0" width="5" y="317" x="80" fill="#0d233a"></rect><rect ry="0" rx="0" height="0" width="5" y="317" x="102" fill="#0d233a"></rect><rect ry="0" rx="0" height="0" width="5" y="317" x="124" fill="#0d233a"></rect><rect ry="0" rx="0" height="0" width="5" y="317" x="147" fill="#0d233a"></rect><rect ry="0" rx="0" height="0" width="5" y="317" x="169" fill="#0d233a"></rect><rect ry="0" rx="0" height="0" width="5" y="317" x="191" fill="#0d233a"></rect><rect ry="0" rx="0" height="0" width="5" y="317" x="214" fill="#0d233a"></rect><rect ry="0" rx="0" height="0" width="5" y="317" x="236" fill="#0d233a"></rect><rect ry="0" rx="0" height="0" width="5" y="317" x="258" fill="#0d233a"></rect><rect ry="0" rx="0" height="0" width="5" y="317" x="281" fill="#0d233a"></rect><rect ry="0" rx="0" height="0" width="5" y="317" x="303" fill="#0d233a"></rect><rect ry="0" rx="0" height="0" width="5" y="317" x="325" fill="#0d233a"></rect><rect ry="0" rx="0" height="0" width="5" y="317" x="348" fill="#0d233a"></rect><rect ry="0" rx="0" height="0" width="5" y="317" x="370" fill="#0d233a"></rect><rect ry="0" rx="0" height="0" width="5" y="317" x="392" fill="#0d233a"></rect><rect ry="0" rx="0" height="0" width="5" y="317" x="415" fill="#0d233a"></rect><rect ry="0" rx="0" height="0" width="5" y="317" x="437" fill="#0d233a"></rect><rect ry="0" rx="0" height="0" width="5" y="317" x="459" fill="#0d233a"></rect><rect ry="0" rx="0" height="0" width="5" y="317" x="482" fill="#0d233a"></rect><rect ry="0" rx="0" height="0" width="5" y="317" x="504" fill="#0d233a"></rect><rect ry="0" rx="0" height="0" width="5" y="317" x="526" fill="#0d233a"></rect><rect ry="0" rx="0" height="0" width="5" y="317" x="549" fill="#0d233a"></rect><rect ry="0" rx="0" height="0" width="5" y="317" x="571" fill="#0d233a"></rect><rect ry="0" rx="0" height="0" width="5" y="317" x="593" fill="#0d233a"></rect><rect ry="0" rx="0" height="0" width="5" y="317" x="616" fill="#0d233a"></rect><rect ry="0" rx="0" height="0" width="5" y="317" x="638" fill="#0d233a"></rect><rect ry="0" rx="0" height="0" width="5" y="317" x="660" fill="#0d233a"></rect></g><g clip-path="none" transform="translate(120,71) scale(1 1)"  visibility="visible" class="highcharts-markers"></g></g><text  class="highcharts-title" text-anchor="middle" style="font-family:'lucida grande', 'lucida sans unicode', verdana, arial, helvetica, sans-serif;font-size:16px;color:#274b6d;fill:#274b6d;" y="25" x="400"><tspan x="400">Liste des interdépendances a la biodiversité et aux services écologiques</tspan></text><text  class="highcharts-subtitle" text-anchor="middle" style="font-family:'lucida grande', 'lucida sans unicode', verdana, arial, helvetica, sans-serif;font-size:12px;color:#4d759e;fill:#4d759e;" y="51" x="400"><tspan x="400">Détaillé</tspan></text><g transform="translate(291,722)"  class="highcharts-legend"><rect visibility="visible" stroke-width="1" stroke="#909090" height="62" width="217" y="0.5" x="0.5" fill="none" ry="5" rx="5"></rect><g ><g><g transform="translate(8,3)"  class="highcharts-legend-item"><text  text-anchor="start" style="font-family:'lucida grande', 'lucida sans unicode', verdana, arial, helvetica, sans-serif;font-size:12px;cursor:pointer;color:#274b6d;fill:#274b6d;" y="15" x="21"><tspan x="21">Dépendances</tspan><tspan x="21" dy="16">aux SE</tspan></text><rect  height="12" width="16" y="4" x="0" fill="#2f7ed8" ry="2" rx="2"></rect></g><g transform="translate(114.93333435058594,3)"  class="highcharts-legend-item"><text  text-anchor="start" style="font-family:'lucida grande', 'lucida sans unicode', verdana, arial, helvetica, sans-serif;font-size:12px;cursor:pointer;color:#274b6d;fill:#274b6d;" y="15" x="21"><tspan x="21">Transactions</tspan><tspan x="21" dy="16">monétaires</tspan><tspan x="21" dy="16">associées</tspan></text><rect  height="12" width="16" y="4" x="0" fill="#0d233a" ry="2" rx="2"></rect></g></g></g></g><g  class="highcharts-axis-labels"><text opacity="1" transform="translate(0,0) rotate(-45 131.16666666666669 396.31370849898474)" text-anchor="end" style="font-family:verdana, sans-serif;font-size:16px;color:#666;cursor:default;line-height:14px;fill:#666;" y="396.31370849898474" x="131.16666666666669"><tspan x="131.16666666666669">Production végétale</tspan></text><text opacity="1" transform="translate(0,0) rotate(-45 153.5 396.31370849898474)" text-anchor="end" style="font-family:verdana, sans-serif;font-size:16px;color:#666;cursor:default;line-height:14px;fill:#666;" y="396.31370849898474" x="153.5"><tspan x="153.5">Production animale</tspan></text><text opacity="1" transform="translate(0,0) rotate(-45 175.83333333333334 396.31370849898474)" text-anchor="end" style="font-family:verdana, sans-serif;font-size:16px;color:#666;cursor:default;line-height:14px;fill:#666;" y="396.31370849898474" x="175.83333333333334"><tspan x="175.83333333333334">Produits biotiques marins</tspan></text><text opacity="1" transform="translate(0,0) rotate(-45 198.16666666666666 396.31370849898474)" text-anchor="end" style="font-family:verdana, sans-serif;font-size:16px;color:#666;cursor:default;line-height:14px;fill:#666;" y="396.31370849898474" x="198.16666666666666"><tspan x="198.16666666666666">Produits biotiques d'eau douce</tspan></text><text opacity="1" transform="translate(0,0) rotate(-45 220.50000000000003 396.31370849898474)" text-anchor="end" style="font-family:verdana, sans-serif;font-size:16px;color:#666;cursor:default;line-height:14px;fill:#666;" y="396.31370849898474" x="220.50000000000003"><tspan x="220.50000000000003">Aquaculture</tspan></text><text opacity="1" transform="translate(0,0) rotate(-45 242.83333333333334 396.31370849898474)" text-anchor="end" style="font-family:verdana, sans-serif;font-size:16px;color:#666;cursor:default;line-height:14px;fill:#666;" y="396.31370849898474" x="242.83333333333334"><tspan x="242.83333333333334">Eau potable</tspan></text><text opacity="1" transform="translate(0,0) rotate(-45 265.16666666666663 396.31370849898474)" text-anchor="end" style="font-family:verdana, sans-serif;font-size:16px;color:#666;cursor:default;line-height:14px;fill:#666;" y="396.31370849898474" x="265.16666666666663"><tspan x="265.16666666666663">Matières issues de vivant</tspan></text><text opacity="1" transform="translate(0,0) rotate(-45 287.49999999999994 396.31370849898474)" text-anchor="end" style="font-family:verdana, sans-serif;font-size:16px;color:#666;cursor:default;line-height:14px;fill:#666;" y="396.31370849898474" x="287.49999999999994"><tspan x="287.49999999999994">Matières minérales</tspan></text><text opacity="1" transform="translate(0,0) rotate(-45 309.8333333333333 396.31370849898474)" text-anchor="end" style="font-family:verdana, sans-serif;font-size:16px;color:#666;cursor:default;line-height:14px;fill:#666;" y="396.31370849898474" x="309.8333333333333"><tspan x="309.8333333333333">Energie renouvelable issue du vivant</tspan></text><text opacity="1" transform="translate(0,0) rotate(-45 332.16666666666663 396.31370849898474)" text-anchor="end" style="font-family:verdana, sans-serif;font-size:16px;color:#666;cursor:default;line-height:14px;fill:#666;" y="396.31370849898474" x="332.16666666666663"><tspan x="332.16666666666663">Energie non renouvelable issue du  vivant</tspan></text><text opacity="1" transform="translate(0,0) rotate(-45 354.49999999999994 396.31370849898474)" text-anchor="end" style="font-family:verdana, sans-serif;font-size:16px;color:#666;cursor:default;line-height:14px;fill:#666;" y="396.31370849898474" x="354.49999999999994"><tspan x="354.49999999999994">Energie renouvelable abiotique</tspan></text><text opacity="1" transform="translate(0,0) rotate(-45 376.8333333333333 396.31370849898474)" text-anchor="end" style="font-family:verdana, sans-serif;font-size:16px;color:#666;cursor:default;line-height:14px;fill:#666;" y="396.31370849898474" x="376.8333333333333"><tspan x="376.8333333333333">Dépollution</tspan></text><text opacity="1" transform="translate(0,0) rotate(-45 399.16666666666663 396.31370849898474)" text-anchor="end" style="font-family:verdana, sans-serif;font-size:16px;color:#666;cursor:default;line-height:14px;fill:#666;" y="396.31370849898474" x="399.16666666666663"><tspan x="399.16666666666663">Assimilation des déchets</tspan></text><text opacity="1" transform="translate(0,0) rotate(-45 421.5 396.31370849898474)" text-anchor="end" style="font-family:verdana, sans-serif;font-size:16px;color:#666;cursor:default;line-height:14px;fill:#666;" y="396.31370849898474" x="421.5"><tspan x="421.5">Régulation des flux gazeux</tspan></text><text opacity="1" transform="translate(0,0) rotate(-45 443.8333333333333 396.31370849898474)" text-anchor="end" style="font-family:verdana, sans-serif;font-size:16px;color:#666;cursor:default;line-height:14px;fill:#666;" y="396.31370849898474" x="443.8333333333333"><tspan x="443.8333333333333">Régulation des flux hydriques</tspan></text><text opacity="1" transform="translate(0,0) rotate(-45 466.16666666666663 396.31370849898474)" text-anchor="end" style="font-family:verdana, sans-serif;font-size:16px;color:#666;cursor:default;line-height:14px;fill:#666;" y="396.31370849898474" x="466.16666666666663"><tspan x="466.16666666666663">Régulation des phénomènes érosifs</tspan></text><text opacity="1" transform="translate(0,0) rotate(-45 488.5 396.31370849898474)" text-anchor="end" style="font-family:verdana, sans-serif;font-size:16px;color:#666;cursor:default;line-height:14px;fill:#666;" y="396.31370849898474" x="488.5"><tspan x="488.5">Régulation de la qualité de l'air</tspan></text><text opacity="1" transform="translate(0,0) rotate(-45 510.8333333333333 396.31370849898474)" text-anchor="end" style="font-family:verdana, sans-serif;font-size:16px;color:#666;cursor:default;line-height:14px;fill:#666;" y="396.31370849898474" x="510.8333333333333"><tspan x="510.8333333333333">Régulation de la qualité de l'eau</tspan></text><text opacity="1" transform="translate(0,0) rotate(-45 533.1666666666666 396.31370849898474)" text-anchor="end" style="font-family:verdana, sans-serif;font-size:16px;color:#666;cursor:default;line-height:14px;fill:#666;" y="396.31370849898474" x="533.1666666666666"><tspan x="533.1666666666666">Régulation de la qualité des sols</tspan></text><text opacity="1" transform="translate(0,0) rotate(-45 555.5000000000001 396.31370849898474)" text-anchor="end" style="font-family:verdana, sans-serif;font-size:16px;color:#666;cursor:default;line-height:14px;fill:#666;" y="396.31370849898474" x="555.5000000000001"><tspan x="555.5000000000001">Régulation du climat global</tspan></text><text opacity="1" transform="translate(0,0) rotate(-45 577.8333333333334 396.31370849898474)" text-anchor="end" style="font-family:verdana, sans-serif;font-size:16px;color:#666;cursor:default;line-height:14px;fill:#666;" y="396.31370849898474" x="577.8333333333334"><tspan x="577.8333333333334">Régulation du climat local</tspan></text><text opacity="1" transform="translate(0,0) rotate(-45 600.1666666666666 396.31370849898474)" text-anchor="end" style="font-family:verdana, sans-serif;font-size:16px;color:#666;cursor:default;line-height:14px;fill:#666;" y="396.31370849898474" x="600.1666666666666"><tspan x="600.1666666666666">Maintenance du cycle de vie et  protection des habitats</tspan></text><text opacity="1" transform="translate(0,0) rotate(-45 622.5 396.31370849898474)" text-anchor="end" style="font-family:verdana, sans-serif;font-size:16px;color:#666;cursor:default;line-height:14px;fill:#666;" y="396.31370849898474" x="622.5"><tspan x="622.5">Régulation des pathogènes et parasites</tspan></text><text opacity="1" transform="translate(0,0) rotate(-45 644.8333333333333 396.31370849898474)" text-anchor="end" style="font-family:verdana, sans-serif;font-size:16px;color:#666;cursor:default;line-height:14px;fill:#666;" y="396.31370849898474" x="644.8333333333333"><tspan x="644.8333333333333">Conservation des stocks génétiques</tspan></text><text opacity="1" transform="translate(0,0) rotate(-45 667.1666666666666 396.31370849898474)" text-anchor="end" style="font-family:verdana, sans-serif;font-size:16px;color:#666;cursor:default;line-height:14px;fill:#666;" y="396.31370849898474" x="667.1666666666666"><tspan x="667.1666666666666">Recherche scientifique</tspan></text><text opacity="1" transform="translate(0,0) rotate(-45 689.5 396.31370849898474)" text-anchor="end" style="font-family:verdana, sans-serif;font-size:16px;color:#666;cursor:default;line-height:14px;fill:#666;" y="396.31370849898474" x="689.5"><tspan x="689.5">Education</tspan></text><text opacity="1" transform="translate(0,0) rotate(-45 711.8333333333333 396.31370849898474)" text-anchor="end" style="font-family:verdana, sans-serif;font-size:16px;color:#666;cursor:default;line-height:14px;fill:#666;" y="396.31370849898474" x="711.8333333333333"><tspan x="711.8333333333333">Esthétiques et culturels</tspan></text><text opacity="1" transform="translate(0,0) rotate(-45 734.1666666666666 396.31370849898474)" text-anchor="end" style="font-family:verdana, sans-serif;font-size:16px;color:#666;cursor:default;line-height:14px;fill:#666;" y="396.31370849898474" x="734.1666666666666"><tspan x="734.1666666666666">Religieux</tspan></text><text opacity="1" transform="translate(0,0) rotate(-45 756.5 396.31370849898474)" text-anchor="end" style="font-family:verdana, sans-serif;font-size:16px;color:#666;cursor:default;line-height:14px;fill:#666;" y="396.31370849898474" x="756.5"><tspan x="756.5">Récréation</tspan></text><text opacity="1" transform="translate(0,0) rotate(-45 778.8333333333333 396.31370849898474)" text-anchor="end" style="font-family:verdana, sans-serif;font-size:16px;color:#666;cursor:default;line-height:14px;fill:#666;" y="396.31370849898474" x="778.8333333333333"><tspan x="778.8333333333333">Volontariat</tspan></text></g><g  class="highcharts-axis-labels"><text opacity="1" text-anchor="end" style="font-family:'lucida grande', 'lucida sans unicode', verdana, arial, helvetica, sans-serif;font-size:11px;color:#666;cursor:default;line-height:14px;fill:#666;" y="390" x="112"><tspan x="112">0</tspan></text><text opacity="1" text-anchor="end" style="font-family:'lucida grande', 'lucida sans unicode', verdana, arial, helvetica, sans-serif;font-size:11px;color:#666;cursor:default;line-height:14px;fill:#666;" y="358.4" x="112"><tspan x="112">0.5</tspan></text><text opacity="1" text-anchor="end" style="font-family:'lucida grande', 'lucida sans unicode', verdana, arial, helvetica, sans-serif;font-size:11px;color:#666;cursor:default;line-height:14px;fill:#666;" y="326.79999999999995" x="112"><tspan x="112">1</tspan></text><text opacity="1" text-anchor="end" style="font-family:'lucida grande', 'lucida sans unicode', verdana, arial, helvetica, sans-serif;font-size:11px;color:#666;cursor:default;line-height:14px;fill:#666;" y="295.20000000000005" x="112"><tspan x="112">1.5</tspan></text><text opacity="1" text-anchor="end" style="font-family:'lucida grande', 'lucida sans unicode', verdana, arial, helvetica, sans-serif;font-size:11px;color:#666;cursor:default;line-height:14px;fill:#666;" y="263.6" x="112"><tspan x="112">2</tspan></text><text opacity="1" text-anchor="end" style="font-family:'lucida grande', 'lucida sans unicode', verdana, arial, helvetica, sans-serif;font-size:11px;color:#666;cursor:default;line-height:14px;fill:#666;" y="232" x="112"><tspan x="112">2.5</tspan></text><text opacity="1" text-anchor="end" style="font-family:'lucida grande', 'lucida sans unicode', verdana, arial, helvetica, sans-serif;font-size:11px;color:#666;cursor:default;line-height:14px;fill:#666;" y="200.39999999999998" x="112"><tspan x="112">3</tspan></text><text opacity="1" text-anchor="end" style="font-family:'lucida grande', 'lucida sans unicode', verdana, arial, helvetica, sans-serif;font-size:11px;color:#666;cursor:default;line-height:14px;fill:#666;" y="168.79999999999995" x="112"><tspan x="112">3.5</tspan></text><text opacity="1" text-anchor="end" style="font-family:'lucida grande', 'lucida sans unicode', verdana, arial, helvetica, sans-serif;font-size:11px;color:#666;cursor:default;line-height:14px;fill:#666;" y="137.20000000000005" x="112"><tspan x="112">4</tspan></text><text opacity="1" text-anchor="end" style="font-family:'lucida grande', 'lucida sans unicode', verdana, arial, helvetica, sans-serif;font-size:11px;color:#666;cursor:default;line-height:14px;fill:#666;" y="105.59999999999991" x="112"><tspan x="112">4.5</tspan></text><text opacity="1" text-anchor="end" style="font-family:'lucida grande', 'lucida sans unicode', verdana, arial, helvetica, sans-serif;font-size:11px;color:#666;cursor:default;line-height:14px;fill:#666;" y="74" x="112"><tspan x="112">5</tspan></text></g><g transform="translate(0,-999)" style="cursor:default;padding:0;white-space:nowrap;"  class="highcharts-tooltip"><rect transform="translate(1, 1)" stroke-width="5" stroke-opacity="0.049999999999999996" stroke="black"  fill-opacity="0.85" height="16" width="16" y="0.5" x="0.5" fill="none" ry="3" rx="3"></rect><rect transform="translate(1, 1)" stroke-width="3" stroke-opacity="0.09999999999999999" stroke="black"  fill-opacity="0.85" height="16" width="16" y="0.5" x="0.5" fill="none" ry="3" rx="3"></rect><rect transform="translate(1, 1)" stroke-width="1" stroke-opacity="0.15" stroke="black"  fill-opacity="0.85" height="16" width="16" y="0.5" x="0.5" fill="none" ry="3" rx="3"></rect><rect fill-opacity="0.85" height="16" width="16" y="0.5" x="0.5" fill="rgb(255,255,255)" ry="3" rx="3"></rect><text  style="font-family:'lucida grande', 'lucida sans unicode', verdana, arial, helvetica, sans-serif;font-size:12px;color:#333333;fill:#333333;" y="21" x="8"></text></g><text  text-anchor="end" style="font-family:'lucida grande', 'lucida sans unicode', verdana, arial, helvetica, sans-serif;font-size:9px;cursor:pointer;color:#909090;fill:#909090;" y="795" x="790"><tspan x="790">Highcharts.com</tspan></text></svg>