<svg xmlns:xlink="http://www.w3.org/1999/xlink" height="800" width="800" xmlns="http://www.w3.org/2000/svg" version="1.1"><desc>Created with Highcharts 3.0.7</desc><defs><clipPath id="highcharts-11"><rect height="335" width="690" y="0" x="0" fill="none"></rect></clipPath></defs><rect height="800" width="800" y="0" x="0" fill="#FFFFFF" ry="5" rx="5"></rect><g  class="highcharts-grid"></g><g  class="highcharts-grid"><path opacity="1"  stroke-width="1" stroke="#C0C0C0" d="M 100 373.5 L 790 373.5" fill="none"></path><path opacity="1"  stroke-width="1" stroke="#C0C0C0" d="M 100 339.5 L 790 339.5" fill="none"></path><path opacity="1"  stroke-width="1" stroke="#C0C0C0" d="M 100 306.5 L 790 306.5" fill="none"></path><path opacity="1"  stroke-width="1" stroke="#C0C0C0" d="M 100 272.5 L 790 272.5" fill="none"></path><path opacity="1"  stroke-width="1" stroke="#C0C0C0" d="M 100 239.5 L 790 239.5" fill="none"></path><path opacity="1"  stroke-width="1" stroke="#C0C0C0" d="M 100 205.5 L 790 205.5" fill="none"></path><path opacity="1"  stroke-width="1" stroke="#C0C0C0" d="M 100 172.5 L 790 172.5" fill="none"></path><path opacity="1"  stroke-width="1" stroke="#C0C0C0" d="M 100 138.5 L 790 138.5" fill="none"></path><path opacity="1"  stroke-width="1" stroke="#C0C0C0" d="M 100 105.5 L 790 105.5" fill="none"></path><path opacity="1"  stroke-width="1" stroke="#C0C0C0" d="M 100 70.5 L 790 70.5" fill="none"></path><path opacity="1"  stroke-width="1" stroke="#C0C0C0" d="M 100 406.5 L 790 406.5" fill="none"></path></g><g  class="highcharts-axis"><path opacity="1" stroke-width="1" stroke="#C0D0E0" d="M 237.5 406 L 237.5 411" fill="none"></path><path opacity="1" stroke-width="1" stroke="#C0D0E0" d="M 306.5 406 L 306.5 411" fill="none"></path><path opacity="1" stroke-width="1" stroke="#C0D0E0" d="M 375.5 406 L 375.5 411" fill="none"></path><path opacity="1" stroke-width="1" stroke="#C0D0E0" d="M 444.5 406 L 444.5 411" fill="none"></path><path opacity="1" stroke-width="1" stroke="#C0D0E0" d="M 513.5 406 L 513.5 411" fill="none"></path><path opacity="1" stroke-width="1" stroke="#C0D0E0" d="M 582.5 406 L 582.5 411" fill="none"></path><path opacity="1" stroke-width="1" stroke="#C0D0E0" d="M 651.5 406 L 651.5 411" fill="none"></path><path opacity="1" stroke-width="1" stroke="#C0D0E0" d="M 720.5 406 L 720.5 411" fill="none"></path><path opacity="1" stroke-width="1" stroke="#C0D0E0" d="M 790.5 406 L 790.5 411" fill="none"></path><path opacity="1" stroke-width="1" stroke="#C0D0E0" d="M 168.5 406 L 168.5 411" fill="none"></path><path stroke-width="1" stroke="#C0D0E0" d="M 99.5 406 L 99.5 411" fill="none"></path><path visibility="visible"  stroke-width="1" stroke="#C0D0E0" d="M 100 406.5 L 790 406.5" fill="none"></path></g><g  class="highcharts-axis"><text visibility="visible" transform="translate(0,0) rotate(270 64.61666679382324 238.5)" text-anchor="middle"  style="font-family:'lucida grande', 'lucida sans unicode', verdana, arial, helvetica, sans-serif;font-size:12px;color:#4d759e;font-weight:bold;fill:#4d759e;" y="238.5" x="64.61666679382324"><tspan x="64.61666679382324">Values</tspan></text></g><g  class="highcharts-series-group"><g clip-path="url(#highcharts-11)" style="" transform="translate(100,71) scale(1 1)"  visibility="visible" class="highcharts-series highcharts-tracker"><rect ry="0" rx="0" height="128" width="13" y="208" x="18" fill="#2f7ed8"></rect><rect ry="0" rx="0" height="0" width="13" y="336" x="87" fill="#2f7ed8"></rect><rect ry="0" rx="0" height="0" width="13" y="336" x="156" fill="#2f7ed8"></rect><rect ry="0" rx="0" height="0" width="13" y="336" x="225" fill="#2f7ed8"></rect><rect ry="0" rx="0" height="0" width="13" y="336" x="294" fill="#2f7ed8"></rect><rect ry="0" rx="0" height="0" width="13" y="336" x="363" fill="#2f7ed8"></rect><rect ry="0" rx="0" height="0" width="13" y="336" x="432" fill="#2f7ed8"></rect><rect ry="0" rx="0" height="0" width="13" y="336" x="501" fill="#2f7ed8"></rect><rect ry="0" rx="0" height="0" width="13" y="336" x="570" fill="#2f7ed8"></rect><rect ry="0" rx="0" height="0" width="13" y="336" x="639" fill="#2f7ed8"></rect></g><g clip-path="none" transform="translate(100,71) scale(1 1)"  visibility="visible" class="highcharts-markers"></g><g clip-path="url(#highcharts-11)" style="" transform="translate(100,71) scale(1 1)"  visibility="visible" class="highcharts-series highcharts-tracker"><rect ry="0" rx="0" height="156" width="13" y="180" x="39" fill="#0d233a"></rect><rect ry="0" rx="0" height="0" width="13" y="336" x="108" fill="#0d233a"></rect><rect ry="0" rx="0" height="0" width="13" y="336" x="177" fill="#0d233a"></rect><rect ry="0" rx="0" height="0" width="13" y="336" x="246" fill="#0d233a"></rect><rect ry="0" rx="0" height="0" width="13" y="336" x="315" fill="#0d233a"></rect><rect ry="0" rx="0" height="0" width="13" y="336" x="384" fill="#0d233a"></rect><rect ry="0" rx="0" height="0" width="13" y="336" x="453" fill="#0d233a"></rect><rect ry="0" rx="0" height="0" width="13" y="336" x="522" fill="#0d233a"></rect><rect ry="0" rx="0" height="0" width="13" y="336" x="591" fill="#0d233a"></rect><rect ry="0" rx="0" height="0" width="13" y="336" x="660" fill="#0d233a"></rect></g><g clip-path="none" transform="translate(100,71) scale(1 1)"  visibility="visible" class="highcharts-markers"></g></g><text  class="highcharts-title" text-anchor="middle" style="font-family:'lucida grande', 'lucida sans unicode', verdana, arial, helvetica, sans-serif;font-size:16px;color:#274b6d;fill:#274b6d;" y="25" x="400"><tspan x="400">Liste des interdépendances a la biodiversité et aux services écologiques</tspan></text><text  class="highcharts-subtitle" text-anchor="middle" style="font-family:'lucida grande', 'lucida sans unicode', verdana, arial, helvetica, sans-serif;font-size:12px;color:#4d759e;fill:#4d759e;" y="51" x="400"><tspan x="400">Agrégé</tspan></text><g transform="translate(291,722)"  class="highcharts-legend"><rect visibility="visible" stroke-width="1" stroke="#909090" height="62" width="217" y="0.5" x="0.5" fill="none" ry="5" rx="5"></rect><g ><g><g transform="translate(8,3)"  class="highcharts-legend-item"><text  text-anchor="start" style="font-family:'lucida grande', 'lucida sans unicode', verdana, arial, helvetica, sans-serif;font-size:12px;cursor:pointer;color:#274b6d;fill:#274b6d;" y="15" x="21"><tspan x="21">Dépendances</tspan><tspan x="21" dy="16">aux SE</tspan></text><rect  height="12" width="16" y="4" x="0" fill="#2f7ed8" ry="2" rx="2"></rect></g><g transform="translate(114.93333435058594,3)"  class="highcharts-legend-item"><text  text-anchor="start" style="font-family:'lucida grande', 'lucida sans unicode', verdana, arial, helvetica, sans-serif;font-size:12px;cursor:pointer;color:#274b6d;fill:#274b6d;" y="15" x="21"><tspan x="21">Transactions</tspan><tspan x="21" dy="16">monétaires</tspan><tspan x="21" dy="16">associées</tspan></text><rect  height="12" width="16" y="4" x="0" fill="#0d233a" ry="2" rx="2"></rect></g></g></g></g><g  class="highcharts-axis-labels"><text opacity="1" transform="translate(0,0) rotate(-45 134.5 415.31370849898474)" text-anchor="end" style="font-family:verdana, sans-serif;font-size:16px;color:#666;cursor:default;line-height:14px;fill:#666;" y="415.31370849898474" x="134.5"><tspan x="134.5">Nourriture et boissons</tspan></text><text opacity="1" transform="translate(0,0) rotate(-45 203.5 415.31370849898474)" text-anchor="end" style="font-family:verdana, sans-serif;font-size:16px;color:#666;cursor:default;line-height:14px;fill:#666;" y="415.31370849898474" x="203.5"><tspan x="203.5">Matériaux</tspan></text><text opacity="1" transform="translate(0,0) rotate(-45 272.5 415.31370849898474)" text-anchor="end" style="font-family:verdana, sans-serif;font-size:16px;color:#666;cursor:default;line-height:14px;fill:#666;" y="415.31370849898474" x="272.5"><tspan x="272.5">Energie</tspan></text><text opacity="1" transform="translate(0,0) rotate(-45 341.5 415.31370849898474)" text-anchor="end" style="font-family:verdana, sans-serif;font-size:16px;color:#666;cursor:default;line-height:14px;fill:#666;" y="415.31370849898474" x="341.5"><tspan x="341.5">Régulation des processus  d’assimilation de déchets</tspan></text><text opacity="1" transform="translate(0,0) rotate(-45 410.5 415.31370849898474)" text-anchor="end" style="font-family:verdana, sans-serif;font-size:16px;color:#666;cursor:default;line-height:14px;fill:#666;" y="415.31370849898474" x="410.5"><tspan x="410.5">Régulation des  risques naturels</tspan></text><text opacity="1" transform="translate(0,0) rotate(-45 479.5 415.31370849898474)" text-anchor="end" style="font-family:verdana, sans-serif;font-size:16px;color:#666;cursor:default;line-height:14px;fill:#666;" y="415.31370849898474" x="479.5"><tspan x="479.5">Régulation des conditions biophysiques</tspan></text><text opacity="1" transform="translate(0,0) rotate(-45 548.5 415.31370849898474)" text-anchor="end" style="font-family:verdana, sans-serif;font-size:16px;color:#666;cursor:default;line-height:14px;fill:#666;" y="415.31370849898474" x="548.5"><tspan x="548.5">Régulation des interactions  biologiques</tspan></text><text opacity="1" transform="translate(0,0) rotate(-45 617.5 415.31370849898474)" text-anchor="end" style="font-family:verdana, sans-serif;font-size:16px;color:#666;cursor:default;line-height:14px;fill:#666;" y="415.31370849898474" x="617.5"><tspan x="617.5">Informations</tspan></text><text opacity="1" transform="translate(0,0) rotate(-45 686.5 415.31370849898474)" text-anchor="end" style="font-family:verdana, sans-serif;font-size:16px;color:#666;cursor:default;line-height:14px;fill:#666;" y="415.31370849898474" x="686.5"><tspan x="686.5">Symboles</tspan></text><text opacity="1" transform="translate(0,0) rotate(-45 755.5 415.31370849898474)" text-anchor="end" style="font-family:verdana, sans-serif;font-size:16px;color:#666;cursor:default;line-height:14px;fill:#666;" y="415.31370849898474" x="755.5"><tspan x="755.5">Expériences</tspan></text></g><g  class="highcharts-axis-labels"><text opacity="1" text-anchor="end" style="font-family:'lucida grande', 'lucida sans unicode', verdana, arial, helvetica, sans-serif;font-size:11px;color:#666;cursor:default;line-height:14px;fill:#666;" y="409" x="92"><tspan x="92">0</tspan></text><text opacity="1" text-anchor="end" style="font-family:'lucida grande', 'lucida sans unicode', verdana, arial, helvetica, sans-serif;font-size:11px;color:#666;cursor:default;line-height:14px;fill:#666;" y="375.5" x="92"><tspan x="92">0.5</tspan></text><text opacity="1" text-anchor="end" style="font-family:'lucida grande', 'lucida sans unicode', verdana, arial, helvetica, sans-serif;font-size:11px;color:#666;cursor:default;line-height:14px;fill:#666;" y="342" x="92"><tspan x="92">1</tspan></text><text opacity="1" text-anchor="end" style="font-family:'lucida grande', 'lucida sans unicode', verdana, arial, helvetica, sans-serif;font-size:11px;color:#666;cursor:default;line-height:14px;fill:#666;" y="308.5" x="92"><tspan x="92">1.5</tspan></text><text opacity="1" text-anchor="end" style="font-family:'lucida grande', 'lucida sans unicode', verdana, arial, helvetica, sans-serif;font-size:11px;color:#666;cursor:default;line-height:14px;fill:#666;" y="275" x="92"><tspan x="92">2</tspan></text><text opacity="1" text-anchor="end" style="font-family:'lucida grande', 'lucida sans unicode', verdana, arial, helvetica, sans-serif;font-size:11px;color:#666;cursor:default;line-height:14px;fill:#666;" y="241.5" x="92"><tspan x="92">2.5</tspan></text><text opacity="1" text-anchor="end" style="font-family:'lucida grande', 'lucida sans unicode', verdana, arial, helvetica, sans-serif;font-size:11px;color:#666;cursor:default;line-height:14px;fill:#666;" y="208" x="92"><tspan x="92">3</tspan></text><text opacity="1" text-anchor="end" style="font-family:'lucida grande', 'lucida sans unicode', verdana, arial, helvetica, sans-serif;font-size:11px;color:#666;cursor:default;line-height:14px;fill:#666;" y="174.5" x="92"><tspan x="92">3.5</tspan></text><text opacity="1" text-anchor="end" style="font-family:'lucida grande', 'lucida sans unicode', verdana, arial, helvetica, sans-serif;font-size:11px;color:#666;cursor:default;line-height:14px;fill:#666;" y="141" x="92"><tspan x="92">4</tspan></text><text opacity="1" text-anchor="end" style="font-family:'lucida grande', 'lucida sans unicode', verdana, arial, helvetica, sans-serif;font-size:11px;color:#666;cursor:default;line-height:14px;fill:#666;" y="107.5" x="92"><tspan x="92">4.5</tspan></text><text opacity="1" text-anchor="end" style="font-family:'lucida grande', 'lucida sans unicode', verdana, arial, helvetica, sans-serif;font-size:11px;color:#666;cursor:default;line-height:14px;fill:#666;" y="74" x="92"><tspan x="92">5</tspan></text></g><g transform="translate(0,-999)" style="cursor:default;padding:0;white-space:nowrap;"  class="highcharts-tooltip"><rect transform="translate(1, 1)" stroke-width="5" stroke-opacity="0.049999999999999996" stroke="black"  fill-opacity="0.85" height="16" width="16" y="0.5" x="0.5" fill="none" ry="3" rx="3"></rect><rect transform="translate(1, 1)" stroke-width="3" stroke-opacity="0.09999999999999999" stroke="black"  fill-opacity="0.85" height="16" width="16" y="0.5" x="0.5" fill="none" ry="3" rx="3"></rect><rect transform="translate(1, 1)" stroke-width="1" stroke-opacity="0.15" stroke="black"  fill-opacity="0.85" height="16" width="16" y="0.5" x="0.5" fill="none" ry="3" rx="3"></rect><rect fill-opacity="0.85" height="16" width="16" y="0.5" x="0.5" fill="rgb(255,255,255)" ry="3" rx="3"></rect><text  style="font-family:'lucida grande', 'lucida sans unicode', verdana, arial, helvetica, sans-serif;font-size:12px;color:#333333;fill:#333333;" y="21" x="8"></text></g><text  text-anchor="end" style="font-family:'lucida grande', 'lucida sans unicode', verdana, arial, helvetica, sans-serif;font-size:9px;cursor:pointer;color:#909090;fill:#909090;" y="795" x="790"><tspan x="790">Highcharts.com</tspan></text></svg>