<svg xmlns:xlink="http://www.w3.org/1999/xlink" height="800" width="800" xmlns="http://www.w3.org/2000/svg" version="1.1"><desc>Created with Highcharts 3.0.7</desc><defs><clipPath id="highcharts-13"><rect height="641" width="560" y="0" x="0" fill="none"></rect></clipPath></defs><rect height="800" width="800" y="0" x="0" fill="#FFFFFF" ry="5" rx="5"></rect><g  class="highcharts-grid"><path opacity="1"  stroke-width="1" stroke="#C0C0C0" d="M 400 391.5 L 449.48298241462675 158.70087102535427" fill="none"></path><path opacity="1"  stroke-width="1" stroke="#C0C0C0" d="M 400 391.5 L 496.8033210520405 174.07618108106098" fill="none"></path><path opacity="1"  stroke-width="1" stroke="#C0C0C0" d="M 400 391.5 L 539.8928900456086 198.9539553387625" fill="none"></path><path opacity="1"  stroke-width="1" stroke="#C0C0C0" d="M 400 391.5 L 576.8684684636198 232.24691568659173" fill="none"></path><path opacity="1"  stroke-width="1" stroke="#C0C0C0" d="M 400 391.5 L 606.1140461006964 272.5" fill="none"></path><path opacity="1"  stroke-width="1" stroke="#C0C0C0" d="M 400 391.5 L 626.3514508782465 317.9539553387625" fill="none"></path><path opacity="1"  stroke-width="1" stroke="#C0C0C0" d="M 400 391.5 L 636.696211097649 366.62222574229844" fill="none"></path><path opacity="1"  stroke-width="1" stroke="#C0C0C0" d="M 400 391.5 L 636.696211097649 416.3777742577015" fill="none"></path><path opacity="1"  stroke-width="1" stroke="#C0C0C0" d="M 400 391.5 L 626.3514508782465 465.0460446612375" fill="none"></path><path opacity="1"  stroke-width="1" stroke="#C0C0C0" d="M 400 391.5 L 606.1140461006964 510.49999999999994" fill="none"></path><path opacity="1"  stroke-width="1" stroke="#C0C0C0" d="M 400 391.5 L 576.8684684636198 550.7530843134082" fill="none"></path><path opacity="1"  stroke-width="1" stroke="#C0C0C0" d="M 400 391.5 L 539.8928900456086 584.0460446612375" fill="none"></path><path opacity="1"  stroke-width="1" stroke="#C0C0C0" d="M 400 391.5 L 496.8033210520405 608.923818918939" fill="none"></path><path opacity="1"  stroke-width="1" stroke="#C0C0C0" d="M 400 391.5 L 449.4829824146268 624.2991289746458" fill="none"></path><path opacity="1"  stroke-width="1" stroke="#C0C0C0" d="M 400 391.5 L 400 629.5" fill="none"></path><path opacity="1"  stroke-width="1" stroke="#C0C0C0" d="M 400 391.5 L 350.5170175853733 624.2991289746458" fill="none"></path><path opacity="1"  stroke-width="1" stroke="#C0C0C0" d="M 400 391.5 L 303.19667894795964 608.9238189189391" fill="none"></path><path opacity="1"  stroke-width="1" stroke="#C0C0C0" d="M 400 391.5 L 260.10710995439143 584.0460446612375" fill="none"></path><path opacity="1"  stroke-width="1" stroke="#C0C0C0" d="M 400 391.5 L 223.13153153638024 550.7530843134083" fill="none"></path><path opacity="1"  stroke-width="1" stroke="#C0C0C0" d="M 400 391.5 L 193.88595389930364 510.5000000000001" fill="none"></path><path opacity="1"  stroke-width="1" stroke="#C0C0C0" d="M 400 391.5 L 173.64854912175346 465.0460446612375" fill="none"></path><path opacity="1"  stroke-width="1" stroke="#C0C0C0" d="M 400 391.5 L 163.30378890235096 416.3777742577017" fill="none"></path><path opacity="1"  stroke-width="1" stroke="#C0C0C0" d="M 400 391.5 L 163.30378890235093 366.62222574229855" fill="none"></path><path opacity="1"  stroke-width="1" stroke="#C0C0C0" d="M 400 391.5 L 173.64854912175343 317.9539553387625" fill="none"></path><path opacity="1"  stroke-width="1" stroke="#C0C0C0" d="M 400 391.5 L 193.8859538993035 272.5000000000001" fill="none"></path><path opacity="1"  stroke-width="1" stroke="#C0C0C0" d="M 400 391.5 L 223.1315315363801 232.24691568659182" fill="none"></path><path opacity="1"  stroke-width="1" stroke="#C0C0C0" d="M 400 391.5 L 260.1071099543914 198.95395533876254" fill="none"></path><path opacity="1"  stroke-width="1" stroke="#C0C0C0" d="M 400 391.5 L 303.1966789479594 174.07618108106107" fill="none"></path><path opacity="1"  stroke-width="1" stroke="#C0C0C0" d="M 400 391.5 L 350.5170175853732 158.70087102535427" fill="none"></path><path opacity="1"  stroke-width="1" stroke="#C0C0C0" d="M 400 391.5 L 399.99999999999994 153.5" fill="none"></path><path opacity="1"  stroke-width="1" stroke="#C0C0C0" d="M 400 391.5 L 400 153.5" fill="none"></path></g><g  class="highcharts-grid"><path opacity="1"  stroke-width="1" stroke="#C0C0C0" d="M 400 367.7 L 400 367.7 L 395.0517017585373 368.22008710253544 L 390.31966789479594 369.7576181081061 L 386.0107109954391 372.24539553387626 L 382.313153153638 375.5746915686592 L 379.38859538993034 379.6 L 377.36485491217536 384.14539553387624 L 376.33037889023507 389.01222257422984 L 376.3303788902351 393.98777742577016 L 377.36485491217536 398.85460446612376 L 379.38859538993034 403.40000000000003 L 382.31315315363804 407.42530843134085 L 386.0107109954391 410.75460446612374 L 390.31966789479594 413.2423818918939 L 395.0517017585373 414.77991289746456 L 400 415.3 L 404.9482982414627 414.77991289746456 L 409.68033210520406 413.2423818918939 L 413.9892890045609 410.75460446612374 L 417.68684684636196 407.4253084313408 L 420.61140461006966 403.4 L 422.63514508782464 398.85460446612376 L 423.6696211097649 393.98777742577016 L 423.6696211097649 389.01222257422984 L 422.63514508782464 384.14539553387624 L 420.61140461006966 379.6 L 417.68684684636196 375.57469156865915 L 413.9892890045609 372.24539553387626 L 409.68033210520406 369.7576181081061 L 404.9482982414627 368.22008710253544 L 400 367.7" fill="none"></path><path opacity="1"  stroke-width="1" stroke="#C0C0C0" d="M 400 343.9 L 400 343.9 L 390.10340351707464 344.94017420507083 L 380.6393357895919 348.0152362162122 L 372.02142199087825 352.9907910677525 L 364.626306307276 359.64938313731835 L 358.7771907798607 367.70000000000005 L 354.72970982435066 376.7907910677525 L 352.6607577804702 386.52444514845973 L 352.6607577804702 396.4755548515403 L 354.7297098243507 406.2092089322475 L 358.77719077986075 415.3 L 364.626306307276 423.35061686268165 L 372.0214219908783 430.0092089322475 L 380.63933578959194 434.9847637837878 L 390.10340351707464 438.05982579492917 L 400 439.1 L 409.89659648292536 438.05982579492917 L 419.3606642104081 434.9847637837878 L 427.97857800912175 430.0092089322475 L 435.373693692724 423.35061686268165 L 441.2228092201393 415.3 L 445.2702901756493 406.2092089322475 L 447.3392422195298 396.4755548515403 L 447.3392422195298 386.5244451484597 L 445.2702901756493 376.7907910677525 L 441.22280922013925 367.7 L 435.373693692724 359.64938313731835 L 427.97857800912175 352.9907910677525 L 419.3606642104081 348.0152362162122 L 409.89659648292536 344.94017420507083 L 400 343.9" fill="none"></path><path opacity="1"  stroke-width="1" stroke="#C0C0C0" d="M 400 320.1 L 400 320.1 L 385.15510527561196 321.6602613076063 L 370.9590036843878 326.2728543243183 L 358.0321329863174 333.73618660162873 L 346.939459460914 343.72407470597756 L 338.16578616979103 355.80000000000007 L 332.094564736526 369.4361866016288 L 328.99113667070526 384.0366677226896 L 328.99113667070526 398.9633322773105 L 332.094564736526 413.5638133983713 L 338.1657861697911 427.20000000000005 L 346.93945946091407 439.2759252940225 L 358.03213298631744 449.26381339837127 L 370.9590036843879 456.72714567568175 L 385.155105275612 461.3397386923937 L 400 462.9 L 414.84489472438804 461.3397386923937 L 429.0409963156121 456.7271456756817 L 441.96786701368256 449.26381339837127 L 453.060540539086 439.27592529402244 L 461.8342138302089 427.2 L 467.905435263474 413.5638133983712 L 471.00886332929474 398.9633322773104 L 471.00886332929474 384.0366677226895 L 467.905435263474 369.4361866016288 L 461.8342138302089 355.8 L 453.06054053908593 343.7240747059775 L 441.96786701368256 333.73618660162873 L 429.0409963156121 326.2728543243183 L 414.84489472438804 321.6602613076063 L 400 320.1" fill="none"></path><path opacity="1"  stroke-width="1" stroke="#C0C0C0" d="M 400 296.3 L 400 296.3 L 380.2068070341493 298.3803484101417 L 361.27867157918377 304.5304724324244 L 344.04284398175656 314.481582135505 L 329.25261261455205 327.7987662746367 L 317.5543815597214 343.90000000000003 L 309.4594196487014 362.081582135505 L 305.3215155609404 381.5488902969194 L 305.3215155609404 401.4511097030807 L 309.4594196487014 420.918417864495 L 317.55438155972143 439.1 L 329.2526126145521 455.2012337253633 L 344.04284398175656 468.518417864495 L 361.2786715791839 478.4695275675756 L 380.20680703414934 484.61965158985834 L 400 486.7 L 419.7931929658507 484.6196515898583 L 438.7213284208162 478.4695275675756 L 455.95715601824344 468.518417864495 L 470.74738738544795 455.2012337253633 L 482.44561844027857 439.09999999999997 L 490.5405803512986 420.918417864495 L 494.6784844390596 401.4511097030806 L 494.6784844390596 381.54889029691935 L 490.5405803512986 362.081582135505 L 482.44561844027857 343.9 L 470.74738738544795 327.7987662746367 L 455.95715601824344 314.481582135505 L 438.7213284208162 304.5304724324244 L 419.7931929658507 298.3803484101417 L 400 296.3" fill="none"></path><path opacity="1"  stroke-width="1" stroke="#C0C0C0" d="M 400 272.5 L 400 272.5 L 375.2585087926866 275.1004355126771 L 351.5983394739797 282.78809054053056 L 330.0535549771957 295.22697766938126 L 311.56576576819003 311.8734578432959 L 296.9429769496518 332.00000000000006 L 286.8242745608767 354.72697766938126 L 281.65189445117545 379.0611128711493 L 281.6518944511755 403.93888712885087 L 286.82427456087674 428.27302233061874 L 296.94297694965184 451.00000000000006 L 311.5657657681901 471.12654215670415 L 330.05355497719574 487.77302233061874 L 351.5983394739798 500.21190945946955 L 375.25850879268665 507.8995644873229 L 400 510.5 L 424.7414912073134 507.8995644873229 L 448.40166052602024 500.2119094594695 L 469.9464450228043 487.77302233061874 L 488.4342342318099 471.1265421567041 L 503.0570230503482 451 L 513.1757254391233 428.27302233061874 L 518.3481055488245 403.93888712885075 L 518.3481055488245 379.06111287114925 L 513.1757254391233 354.72697766938126 L 503.0570230503482 332 L 488.4342342318099 311.87345784329585 L 469.9464450228043 295.22697766938126 L 448.40166052602024 282.7880905405305 L 424.7414912073134 275.1004355126771 L 400 272.5" fill="none"></path><path opacity="1"  stroke-width="1" stroke="#C0C0C0" d="M 400 248.7 L 400 248.7 L 370.3102105512239 251.82052261521255 L 341.91800736877565 261.0457086486366 L 316.0642659726348 275.9723732032575 L 293.878918921828 295.9481494119551 L 276.33157233958207 320.1000000000001 L 264.18912947305205 347.37237320325755 L 257.9822733414105 376.57333544537914 L 257.9822733414106 406.426664554621 L 264.18912947305205 435.6276267967425 L 276.3315723395822 462.90000000000003 L 293.87891892182813 487.051850588045 L 316.06426597263487 507.02762679674254 L 341.91800736877576 521.9542913513635 L 370.310210551224 531.1794773847874 L 400 534.3 L 429.6897894487761 531.1794773847874 L 458.0819926312243 521.9542913513634 L 483.9357340273652 507.02762679674254 L 506.1210810781719 487.05185058804494 L 523.6684276604178 462.9 L 535.810870526948 435.6276267967425 L 542.0177266585895 406.4266645546209 L 542.0177266585895 376.5733354453791 L 535.810870526948 347.3723732032575 L 523.6684276604178 320.1 L 506.1210810781719 295.948149411955 L 483.9357340273652 275.97237320325746 L 458.0819926312243 261.0457086486366 L 429.6897894487761 251.82052261521255 L 400 248.7" fill="none"></path><path opacity="1"  stroke-width="1" stroke="#C0C0C0" d="M 400 224.9 L 399.99999999999994 224.9 L 365.36191230976124 228.540609717748 L 332.2376752635716 239.30332675674276 L 302.07497696807394 256.7177687371338 L 276.19207207546606 280.02284098061426 L 255.72016772951247 308.2000000000001 L 241.5539843852274 340.0177687371338 L 234.31265223164564 374.085558019609 L 234.31265223164567 408.9144419803912 L 241.55398438522744 442.98223126286626 L 255.72016772951255 474.80000000000007 L 276.19207207546617 502.9771590193858 L 302.074976968074 526.2822312628663 L 332.23767526357176 543.6966732432574 L 365.36191230976135 554.459390282252 L 400 558.1 L 434.63808769023876 554.459390282252 L 467.76232473642835 543.6966732432572 L 497.925023031926 526.2822312628663 L 523.8079279245339 502.97715901938574 L 544.2798322704875 474.79999999999995 L 558.4460156147726 442.9822312628662 L 565.6873477683544 408.9144419803911 L 565.6873477683544 374.0855580196089 L 558.4460156147726 340.0177687371338 L 544.2798322704875 308.2 L 523.8079279245338 280.0228409806142 L 497.925023031926 256.7177687371337 L 467.7623247364283 239.3033267567427 L 434.6380876902387 228.540609717748 L 400 224.9" fill="none"></path><path opacity="1"  stroke-width="1" stroke="#C0C0C0" d="M 400 201.1 L 399.99999999999994 201.1 L 360.41361406829856 205.2606968202834 L 322.55734315836753 217.56094486484886 L 288.0856879635131 237.46316427101002 L 258.5052252291041 264.09753254927347 L 235.1087631194428 296.3000000000001 L 218.91883929740274 332.66316427101003 L 210.64303112188074 371.5977805938389 L 210.64303112188077 411.40221940616135 L 218.91883929740277 450.33683572899 L 235.1087631194429 486.70000000000005 L 258.5052252291042 518.9024674507266 L 288.0856879635131 545.53683572899 L 322.5573431583677 565.4390551351512 L 360.41361406829867 577.7393031797167 L 400 581.9 L 439.58638593170144 577.7393031797166 L 477.4426568416324 565.4390551351512 L 511.9143120364869 545.53683572899 L 541.4947747708959 518.9024674507266 L 564.8912368805571 486.7 L 581.0811607025972 450.33683572898997 L 589.3569688781192 411.4022194061612 L 589.3569688781192 371.59778059383876 L 581.0811607025972 332.66316427101003 L 564.8912368805571 296.3 L 541.4947747708959 264.0975325492734 L 511.9143120364869 237.46316427101 L 477.44265684163236 217.56094486484878 L 439.5863859317014 205.2606968202834 L 400 201.1" fill="none"></path><path opacity="1"  stroke-width="1" stroke="#C0C0C0" d="M 400 177.29999999999998 L 399.99999999999994 177.29999999999998 L 355.4653158268359 181.98078392281883 L 312.8770110531634 195.81856297295494 L 274.09639895895225 218.20855980488628 L 240.81837838274208 248.17222411793261 L 214.49735850937313 284.4000000000001 L 196.28369420957807 325.3085598048863 L 186.9734100121158 369.1100031680687 L 186.97341001211583 413.8899968319315 L 196.2836942095781 457.6914401951137 L 214.49735850937327 498.6000000000001 L 240.8183783827422 534.8277758820675 L 274.09639895895225 564.7914401951138 L 312.87701105316364 587.1814370270451 L 355.465315826836 601.0192160771812 L 400 605.7 L 444.5346841731641 601.0192160771812 L 487.1229889468365 587.1814370270451 L 525.9036010410478 564.7914401951138 L 559.1816216172579 534.8277758820674 L 585.5026414906267 498.59999999999997 L 603.7163057904219 457.6914401951137 L 613.0265899878841 413.88999683193134 L 613.0265899878841 369.1100031680686 L 603.7163057904219 325.3085598048863 L 585.5026414906267 284.4 L 559.1816216172579 248.17222411793256 L 525.9036010410478 218.20855980488625 L 487.1229889468364 195.81856297295488 L 444.53468417316407 181.98078392281883 L 400 177.29999999999998" fill="none"></path><path opacity="1"  stroke-width="1" stroke="#C0C0C0" d="M 400 153.5 L 399.99999999999994 153.5 L 350.5170175853732 158.70087102535427 L 303.1966789479594 174.07618108106107 L 260.1071099543914 198.95395533876254 L 223.1315315363801 232.24691568659182 L 193.8859538993035 272.5000000000001 L 173.64854912175343 317.9539553387625 L 163.30378890235093 366.62222574229855 L 163.30378890235096 416.3777742577017 L 173.64854912175346 465.0460446612375 L 193.88595389930364 510.5000000000001 L 223.13153153638024 550.7530843134083 L 260.10710995439143 584.0460446612375 L 303.19667894795964 608.9238189189391 L 350.5170175853733 624.2991289746458 L 400 629.5 L 449.4829824146268 624.2991289746458 L 496.8033210520405 608.923818918939 L 539.8928900456086 584.0460446612375 L 576.8684684636198 550.7530843134082 L 606.1140461006964 510.49999999999994 L 626.3514508782465 465.0460446612375 L 636.696211097649 416.3777742577015 L 636.696211097649 366.62222574229844 L 626.3514508782465 317.9539553387625 L 606.1140461006964 272.5 L 576.8684684636198 232.24691568659173 L 539.8928900456086 198.9539553387625 L 496.8033210520405 174.07618108106098 L 449.48298241462675 158.70087102535427 L 400 153.5" fill="none"></path><path opacity="1"  stroke-width="1" stroke="#C0C0C0" d="M 400 391.5 L 400 391.5 L 400 391.5 L 400 391.5 L 400 391.5 L 400 391.5 L 400 391.5 L 400 391.5 L 400 391.5 L 400 391.5 L 400 391.5 L 400 391.5 L 400 391.5 L 400 391.5 L 400 391.5 L 400 391.5 L 400 391.5 L 400 391.5 L 400 391.5 L 400 391.5 L 400 391.5 L 400 391.5 L 400 391.5 L 400 391.5 L 400 391.5 L 400 391.5 L 400 391.5 L 400 391.5 L 400 391.5 L 400 391.5 L 400 391.5 L 400 391.5" fill="none"></path></g><g  class="highcharts-axis"></g><g  class="highcharts-axis"></g><g  class="highcharts-series-group"><g clip-path="url(#highcharts-13)" transform="translate(120,71) scale(1 1)"  visibility="visible" class="highcharts-series"><path stroke-linecap="round" stroke-linejoin="round"  stroke-width="2" stroke="#2f7ed8" d="M 280 229.26508 L 280 320.5 L 280 320.5 L 280 320.5 L 280 320.5 L 280 320.5 L 280 320.5 L 280 320.5 L 280 320.5 L 280 320.5 L 280 320.5 L 280 320.5 L 280 320.5 L 280 320.5 L 280 320.5 L 280 320.5 L 280 320.5 L 280 320.5 L 280 320.5 L 280 320.5 L 280 320.5 L 280 320.5 L 280 320.5 L 280 320.5 L 280 320.5 L 280 320.5 L 280 320.5 L 280 320.5 L 280 320.5 L 280 320.5 L 280 229.26508" fill="none"></path><path style="" class=" highcharts-tracker"  stroke-width="22" stroke="rgb(192,192,192)" stroke-opacity="0.0001" visibility="visible" stroke-linejoin="round" d="M 270 229.26508 L 280 229.26508 L 280 320.5 L 280 320.5 L 280 320.5 L 280 320.5 L 280 320.5 L 280 320.5 L 280 320.5 L 280 320.5 L 280 320.5 L 280 320.5 L 280 320.5 L 280 320.5 L 280 320.5 L 280 320.5 L 280 320.5 L 280 320.5 L 280 320.5 L 280 320.5 L 280 320.5 L 280 320.5 L 280 320.5 L 280 320.5 L 280 320.5 L 280 320.5 L 280 320.5 L 280 320.5 L 280 320.5 L 280 320.5 L 280 320.5 L 280 229.26508 L 290 229.26508" fill="none"></path></g><g clip-path="none" style="" transform="translate(120,71) scale(1 1)"  visibility="visible" class="highcharts-markers highcharts-tracker"><path d="M 280 316.5 C 285.328 316.5 285.328 324.5 280 324.5 C 274.672 324.5 274.672 316.5 280 316.5 Z" fill="#2f7ed8"></path><path d="M 280 316.5 C 285.328 316.5 285.328 324.5 280 324.5 C 274.672 324.5 274.672 316.5 280 316.5 Z" fill="#2f7ed8"></path><path d="M 280 316.5 C 285.328 316.5 285.328 324.5 280 324.5 C 274.672 324.5 274.672 316.5 280 316.5 Z" fill="#2f7ed8"></path><path d="M 280 316.5 C 285.328 316.5 285.328 324.5 280 324.5 C 274.672 324.5 274.672 316.5 280 316.5 Z" fill="#2f7ed8"></path><path d="M 280 316.5 C 285.328 316.5 285.328 324.5 280 324.5 C 274.672 324.5 274.672 316.5 280 316.5 Z" fill="#2f7ed8"></path><path d="M 280 316.5 C 285.328 316.5 285.328 324.5 280 324.5 C 274.672 324.5 274.672 316.5 280 316.5 Z" fill="#2f7ed8"></path><path d="M 280 316.5 C 285.328 316.5 285.328 324.5 280 324.5 C 274.672 324.5 274.672 316.5 280 316.5 Z" fill="#2f7ed8"></path><path d="M 280 316.5 C 285.328 316.5 285.328 324.5 280 324.5 C 274.672 324.5 274.672 316.5 280 316.5 Z" fill="#2f7ed8"></path><path d="M 280 316.5 C 285.328 316.5 285.328 324.5 280 324.5 C 274.672 324.5 274.672 316.5 280 316.5 Z" fill="#2f7ed8"></path><path d="M 280 316.5 C 285.328 316.5 285.328 324.5 280 324.5 C 274.672 324.5 274.672 316.5 280 316.5 Z" fill="#2f7ed8"></path><path d="M 280 316.5 C 285.328 316.5 285.328 324.5 280 324.5 C 274.672 324.5 274.672 316.5 280 316.5 Z" fill="#2f7ed8"></path><path d="M 280 316.5 C 285.328 316.5 285.328 324.5 280 324.5 C 274.672 324.5 274.672 316.5 280 316.5 Z" fill="#2f7ed8"></path><path d="M 280 316.5 C 285.328 316.5 285.328 324.5 280 324.5 C 274.672 324.5 274.672 316.5 280 316.5 Z" fill="#2f7ed8"></path><path d="M 280 316.5 C 285.328 316.5 285.328 324.5 280 324.5 C 274.672 324.5 274.672 316.5 280 316.5 Z" fill="#2f7ed8"></path><path d="M 280 316.5 C 285.328 316.5 285.328 324.5 280 324.5 C 274.672 324.5 274.672 316.5 280 316.5 Z" fill="#2f7ed8"></path><path d="M 280 316.5 C 285.328 316.5 285.328 324.5 280 324.5 C 274.672 324.5 274.672 316.5 280 316.5 Z" fill="#2f7ed8"></path><path d="M 280 316.5 C 285.328 316.5 285.328 324.5 280 324.5 C 274.672 324.5 274.672 316.5 280 316.5 Z" fill="#2f7ed8"></path><path d="M 280 316.5 C 285.328 316.5 285.328 324.5 280 324.5 C 274.672 324.5 274.672 316.5 280 316.5 Z" fill="#2f7ed8"></path><path d="M 280 316.5 C 285.328 316.5 285.328 324.5 280 324.5 C 274.672 324.5 274.672 316.5 280 316.5 Z" fill="#2f7ed8"></path><path d="M 280 316.5 C 285.328 316.5 285.328 324.5 280 324.5 C 274.672 324.5 274.672 316.5 280 316.5 Z" fill="#2f7ed8"></path><path d="M 280 316.5 C 285.328 316.5 285.328 324.5 280 324.5 C 274.672 324.5 274.672 316.5 280 316.5 Z" fill="#2f7ed8"></path><path d="M 280 316.5 C 285.328 316.5 285.328 324.5 280 324.5 C 274.672 324.5 274.672 316.5 280 316.5 Z" fill="#2f7ed8"></path><path d="M 280 316.5 C 285.328 316.5 285.328 324.5 280 324.5 C 274.672 324.5 274.672 316.5 280 316.5 Z" fill="#2f7ed8"></path><path d="M 280 316.5 C 285.328 316.5 285.328 324.5 280 324.5 C 274.672 324.5 274.672 316.5 280 316.5 Z" fill="#2f7ed8"></path><path d="M 280 316.5 C 285.328 316.5 285.328 324.5 280 324.5 C 274.672 324.5 274.672 316.5 280 316.5 Z" fill="#2f7ed8"></path><path d="M 280 316.5 C 285.328 316.5 285.328 324.5 280 324.5 C 274.672 324.5 274.672 316.5 280 316.5 Z" fill="#2f7ed8"></path><path d="M 280 316.5 C 285.328 316.5 285.328 324.5 280 324.5 C 274.672 324.5 274.672 316.5 280 316.5 Z" fill="#2f7ed8"></path><path d="M 280 316.5 C 285.328 316.5 285.328 324.5 280 324.5 C 274.672 324.5 274.672 316.5 280 316.5 Z" fill="#2f7ed8"></path><path d="M 280 316.5 C 285.328 316.5 285.328 324.5 280 324.5 C 274.672 324.5 274.672 316.5 280 316.5 Z" fill="#2f7ed8"></path><path d="M 280 225.26508 C 285.328 225.26508 285.328 233.26508 280 233.26508 C 274.672 233.26508 274.672 225.26508 280 225.26508 Z" fill="#2f7ed8"></path></g><g clip-path="url(#highcharts-13)" transform="translate(120,71) scale(1 1)"  visibility="visible" class="highcharts-series"><path stroke-linecap="round" stroke-linejoin="round"  stroke-width="2" stroke="#0d233a" d="M 280 209.43492000000003 L 280 320.5 L 280 320.5 L 280 320.5 L 280 320.5 L 280 320.5 L 280 320.5 L 280 320.5 L 280 320.5 L 280 320.5 L 280 320.5 L 280 320.5 L 280 320.5 L 280 320.5 L 280 320.5 L 280 320.5 L 280 320.5 L 280 320.5 L 280 320.5 L 280 320.5 L 280 320.5 L 280 320.5 L 280 320.5 L 280 320.5 L 280 320.5 L 280 320.5 L 280 320.5 L 280 320.5 L 280 320.5 L 280 320.5 L 280 209.43492000000003" fill="none"></path><path style="" class=" highcharts-tracker"  stroke-width="22" stroke="rgb(192,192,192)" stroke-opacity="0.0001" visibility="visible" stroke-linejoin="round" d="M 270 209.43492000000003 L 280 209.43492000000003 L 280 320.5 L 280 320.5 L 280 320.5 L 280 320.5 L 280 320.5 L 280 320.5 L 280 320.5 L 280 320.5 L 280 320.5 L 280 320.5 L 280 320.5 L 280 320.5 L 280 320.5 L 280 320.5 L 280 320.5 L 280 320.5 L 280 320.5 L 280 320.5 L 280 320.5 L 280 320.5 L 280 320.5 L 280 320.5 L 280 320.5 L 280 320.5 L 280 320.5 L 280 320.5 L 280 320.5 L 280 320.5 L 280 320.5 L 280 209.43492000000003 L 290 209.43492000000003" fill="none"></path></g><g clip-path="none" style="" transform="translate(120,71) scale(1 1)"  visibility="visible" class="highcharts-markers highcharts-tracker"><path d="M 280 316.5 L 284 320.5 280 324.5 276 320.5 Z" fill="#0d233a"></path><path d="M 280 316.5 L 284 320.5 280 324.5 276 320.5 Z" fill="#0d233a"></path><path d="M 280 316.5 L 284 320.5 280 324.5 276 320.5 Z" fill="#0d233a"></path><path d="M 280 316.5 L 284 320.5 280 324.5 276 320.5 Z" fill="#0d233a"></path><path d="M 280 316.5 L 284 320.5 280 324.5 276 320.5 Z" fill="#0d233a"></path><path d="M 280 316.5 L 284 320.5 280 324.5 276 320.5 Z" fill="#0d233a"></path><path d="M 280 316.5 L 284 320.5 280 324.5 276 320.5 Z" fill="#0d233a"></path><path d="M 280 316.5 L 284 320.5 280 324.5 276 320.5 Z" fill="#0d233a"></path><path d="M 280 316.5 L 284 320.5 280 324.5 276 320.5 Z" fill="#0d233a"></path><path d="M 280 316.5 L 284 320.5 280 324.5 276 320.5 Z" fill="#0d233a"></path><path d="M 280 316.5 L 284 320.5 280 324.5 276 320.5 Z" fill="#0d233a"></path><path d="M 280 316.5 L 284 320.5 280 324.5 276 320.5 Z" fill="#0d233a"></path><path d="M 280 316.5 L 284 320.5 280 324.5 276 320.5 Z" fill="#0d233a"></path><path d="M 280 316.5 L 284 320.5 280 324.5 276 320.5 Z" fill="#0d233a"></path><path d="M 280 316.5 L 284 320.5 280 324.5 276 320.5 Z" fill="#0d233a"></path><path d="M 280 316.5 L 284 320.5 280 324.5 276 320.5 Z" fill="#0d233a"></path><path d="M 280 316.5 L 284 320.5 280 324.5 276 320.5 Z" fill="#0d233a"></path><path d="M 280 316.5 L 284 320.5 280 324.5 276 320.5 Z" fill="#0d233a"></path><path d="M 280 316.5 L 284 320.5 280 324.5 276 320.5 Z" fill="#0d233a"></path><path d="M 280 316.5 L 284 320.5 280 324.5 276 320.5 Z" fill="#0d233a"></path><path d="M 280 316.5 L 284 320.5 280 324.5 276 320.5 Z" fill="#0d233a"></path><path d="M 280 316.5 L 284 320.5 280 324.5 276 320.5 Z" fill="#0d233a"></path><path d="M 280 316.5 L 284 320.5 280 324.5 276 320.5 Z" fill="#0d233a"></path><path d="M 280 316.5 L 284 320.5 280 324.5 276 320.5 Z" fill="#0d233a"></path><path d="M 280 316.5 L 284 320.5 280 324.5 276 320.5 Z" fill="#0d233a"></path><path d="M 280 316.5 L 284 320.5 280 324.5 276 320.5 Z" fill="#0d233a"></path><path d="M 280 316.5 L 284 320.5 280 324.5 276 320.5 Z" fill="#0d233a"></path><path d="M 280 316.5 L 284 320.5 280 324.5 276 320.5 Z" fill="#0d233a"></path><path d="M 280 316.5 L 284 320.5 280 324.5 276 320.5 Z" fill="#0d233a"></path><path d="M 280 205.43492000000003 L 284 209.43492000000003 280 213.43492000000003 276 209.43492000000003 Z" fill="#0d233a"></path></g></g><text  class="highcharts-title" text-anchor="middle" style="font-family:'lucida grande', 'lucida sans unicode', verdana, arial, helvetica, sans-serif;font-size:16px;color:#274b6d;fill:#274b6d;" y="25" x="400"><tspan x="400">Liste des interdépendances a la biodiversité et aux services écologiques</tspan></text><text  class="highcharts-subtitle" text-anchor="middle" style="font-family:'lucida grande', 'lucida sans unicode', verdana, arial, helvetica, sans-serif;font-size:12px;color:#4d759e;fill:#4d759e;" y="51" x="400"><tspan x="400">Détaillé</tspan></text><g transform="translate(291,722)"  class="highcharts-legend"><rect visibility="visible" stroke-width="1" stroke="#909090" height="62" width="217" y="0.5" x="0.5" fill="none" ry="5" rx="5"></rect><g ><g><g transform="translate(8,3)"  class="highcharts-legend-item"><path stroke-width="2" stroke="#2f7ed8" d="M 0 11 L 16 11" fill="none"></path><path d="M 8 7 C 13.328 7 13.328 15 8 15 C 2.6719999999999997 15 2.6719999999999997 7 8 7 Z" fill="#2f7ed8"></path><text  text-anchor="start" style="font-family:'lucida grande', 'lucida sans unicode', verdana, arial, helvetica, sans-serif;font-size:12px;cursor:pointer;color:#274b6d;fill:#274b6d;" y="15" x="21"><tspan x="21">Dépendances</tspan><tspan x="21" dy="16">aux SE</tspan></text></g><g transform="translate(114.93333435058594,3)"  class="highcharts-legend-item"><path stroke-width="2" stroke="#0d233a" d="M 0 11 L 16 11" fill="none"></path><path d="M 8 7 L 12 11 8 15 4 11 Z" fill="#0d233a"></path><text  text-anchor="start" style="font-family:'lucida grande', 'lucida sans unicode', verdana, arial, helvetica, sans-serif;font-size:12px;cursor:pointer;color:#274b6d;fill:#274b6d;" y="15" x="21"><tspan x="21">Transactions</tspan><tspan x="21" dy="16">monétaires</tspan><tspan x="21" dy="16">associées</tspan></text></g></g></g></g><g  class="highcharts-axis-labels"><text opacity="1" text-anchor="middle" style="font-family:verdana, sans-serif;font-size:16px;color:#666;cursor:default;line-height:14px;fill:#666;" y="133.6" x="400"><tspan x="400">Production</tspan><tspan x="400" dy="14">végétale</tspan></text><text opacity="1" text-anchor="middle" style="font-family:verdana, sans-serif;font-size:16px;color:#666;cursor:default;line-height:14px;fill:#666;" y="139.12865701434717" x="452.60165777689315"><tspan x="452.60165777689315">Production</tspan><tspan x="452.60165777689315" dy="14">animale</tspan></text><text opacity="1" text-anchor="start" style="font-family:verdana, sans-serif;font-size:16px;color:#666;cursor:default;line-height:14px;fill:#666;" y="155.47299921642198" x="502.90437069817744"><tspan x="502.90437069817744">Produits biotiques</tspan><tspan x="502.90437069817744" dy="14">marins</tspan></text><text opacity="1" text-anchor="start" style="font-family:verdana, sans-serif;font-size:16px;color:#666;cursor:default;line-height:14px;fill:#666;" y="181.9187004231383" x="548.7096688299957"><tspan x="548.7096688299957">Produits biotiques</tspan><tspan x="548.7096688299957" dy="14">d'eau douce</tspan></text><text opacity="1" text-anchor="start" style="font-family:verdana, sans-serif;font-size:16px;color:#666;cursor:default;line-height:14px;fill:#666;" y="224.30995659120887" x="588.0156408457808"><tspan x="588.0156408457808">Aquaculture</tspan></text><text opacity="1" text-anchor="start" style="font-family:verdana, sans-serif;font-size:16px;color:#666;cursor:default;line-height:14px;fill:#666;" y="267.1" x="619.104427157463"><tspan x="619.104427157463">Eau potable</tspan></text><text opacity="1" text-anchor="start" style="font-family:verdana, sans-serif;font-size:16px;color:#666;cursor:default;line-height:14px;fill:#666;" y="308.4187004231383" x="640.6172986226738"><tspan x="640.6172986226738">Matières issues de</tspan><tspan x="640.6172986226738" dy="14">vivant</tspan></text><text opacity="1" text-anchor="start" style="font-family:verdana, sans-serif;font-size:16px;color:#666;cursor:default;line-height:14px;fill:#666;" y="360.15429879328366" x="651.6140395281732"><tspan x="651.6140395281732">Matières</tspan><tspan x="651.6140395281732" dy="14">minérales</tspan></text><text opacity="1" text-anchor="start" style="font-family:verdana, sans-serif;font-size:16px;color:#666;cursor:default;line-height:14px;fill:#666;" y="406.04570120671633" x="651.6140395281732"><tspan x="651.6140395281732">Energie</tspan><tspan x="651.6140395281732" dy="14">renouvelable issue</tspan><tspan x="651.6140395281732" dy="14">du vivant</tspan></text><text opacity="1" text-anchor="start" style="font-family:verdana, sans-serif;font-size:16px;color:#666;cursor:default;line-height:14px;fill:#666;" y="457.7812995768617" x="640.6172986226738"><tspan x="640.6172986226738">Energie non</tspan><tspan x="640.6172986226738" dy="14">renouvelable issue</tspan><tspan x="640.6172986226738" dy="14">du  vivant</tspan></text><text opacity="1" text-anchor="start" style="font-family:verdana, sans-serif;font-size:16px;color:#666;cursor:default;line-height:14px;fill:#666;" y="506.1" x="619.104427157463"><tspan x="619.104427157463">Energie</tspan><tspan x="619.104427157463" dy="14">renouvelable</tspan><tspan x="619.104427157463" dy="14">abiotique</tspan></text><text opacity="1" text-anchor="start" style="font-family:verdana, sans-serif;font-size:16px;color:#666;cursor:default;line-height:14px;fill:#666;" y="562.890043408791" x="588.0156408457808"><tspan x="588.0156408457808">Dépollution</tspan></text><text opacity="1" text-anchor="start" style="font-family:verdana, sans-serif;font-size:16px;color:#666;cursor:default;line-height:14px;fill:#666;" y="591.2812995768617" x="548.7096688299957"><tspan x="548.7096688299957">Assimilation des</tspan><tspan x="548.7096688299957" dy="14">déchets</tspan></text><text opacity="1" text-anchor="start" style="font-family:verdana, sans-serif;font-size:16px;color:#666;cursor:default;line-height:14px;fill:#666;" y="617.7270007835781" x="502.9043706981775"><tspan x="502.9043706981775">Régulation des</tspan><tspan x="502.9043706981775" dy="14">flux gazeux</tspan></text><text opacity="1" text-anchor="middle" style="font-family:verdana, sans-serif;font-size:16px;color:#666;cursor:default;line-height:14px;fill:#666;" y="634.0713429856529" x="452.6016577768932"><tspan x="452.6016577768932">Régulation des</tspan><tspan x="452.6016577768932" dy="14">flux hydriques</tspan></text><text opacity="1" text-anchor="middle" style="font-family:verdana, sans-serif;font-size:16px;color:#666;cursor:default;line-height:14px;fill:#666;" y="632.6" x="400"><tspan x="400">Régulation des</tspan><tspan x="400" dy="14">phénomènes</tspan><tspan x="400" dy="14">érosifs</tspan></text><text opacity="1" text-anchor="middle" style="font-family:verdana, sans-serif;font-size:16px;color:#666;cursor:default;line-height:14px;fill:#666;" y="634.0713429856529" x="347.39834222310697"><tspan x="347.39834222310697">Régulation de la</tspan><tspan x="347.39834222310697" dy="14">qualité de l'air</tspan></text><text opacity="1" text-anchor="end" style="font-family:verdana, sans-serif;font-size:16px;color:#666;cursor:default;line-height:14px;fill:#666;" y="617.7270007835781" x="297.0956293018226"><tspan x="297.0956293018226">Régulation de la</tspan><tspan x="297.0956293018226" dy="14">qualité de l'eau</tspan></text><text opacity="1" text-anchor="end" style="font-family:verdana, sans-serif;font-size:16px;color:#666;cursor:default;line-height:14px;fill:#666;" y="591.2812995768617" x="251.29033117000432"><tspan x="251.29033117000432">Régulation de la</tspan><tspan x="251.29033117000432" dy="14">qualité des sols</tspan></text><text opacity="1" text-anchor="end" style="font-family:verdana, sans-serif;font-size:16px;color:#666;cursor:default;line-height:14px;fill:#666;" y="555.8900434087911" x="211.9843591542193"><tspan x="211.9843591542193">Régulation du</tspan><tspan x="211.9843591542193" dy="14">climat global</tspan></text><text opacity="1" text-anchor="end" style="font-family:verdana, sans-serif;font-size:16px;color:#666;cursor:default;line-height:14px;fill:#666;" y="513.1000000000001" x="180.89557284253706"><tspan x="180.89557284253706">Régulation du</tspan><tspan x="180.89557284253706" dy="14">climat local</tspan></text><text opacity="1" text-anchor="end" style="font-family:verdana, sans-serif;font-size:16px;color:#666;cursor:default;line-height:14px;fill:#666;" y="450.7812995768617" x="159.38270137732616"><tspan x="159.38270137732616">Maintenance du</tspan><tspan x="159.38270137732616" dy="14">cycle de vie et </tspan><tspan x="159.38270137732616" dy="14">protection des</tspan><tspan x="159.38270137732616" dy="14">habitats</tspan></text><text opacity="1" text-anchor="end" style="font-family:verdana, sans-serif;font-size:16px;color:#666;cursor:default;line-height:14px;fill:#666;" y="406.04570120671656" x="148.38596047182685"><tspan x="148.38596047182685">Régulation des</tspan><tspan x="148.38596047182685" dy="14">pathogènes et</tspan><tspan x="148.38596047182685" dy="14">parasites</tspan></text><text opacity="1" text-anchor="end" style="font-family:verdana, sans-serif;font-size:16px;color:#666;cursor:default;line-height:14px;fill:#666;" y="360.15429879328383" x="148.38596047182682"><tspan x="148.38596047182682">Conservation des</tspan><tspan x="148.38596047182682" dy="14">stocks génétiques</tspan></text><text opacity="1" text-anchor="end" style="font-family:verdana, sans-serif;font-size:16px;color:#666;cursor:default;line-height:14px;fill:#666;" y="308.4187004231384" x="159.38270137732613"><tspan x="159.38270137732613">Recherche</tspan><tspan x="159.38270137732613" dy="14">scientifique</tspan></text><text opacity="1" text-anchor="end" style="font-family:verdana, sans-serif;font-size:16px;color:#666;cursor:default;line-height:14px;fill:#666;" y="267.1000000000002" x="180.89557284253692"><tspan x="180.89557284253692">Education</tspan></text><text opacity="1" text-anchor="end" style="font-family:verdana, sans-serif;font-size:16px;color:#666;cursor:default;line-height:14px;fill:#666;" y="217.30995659120893" x="211.98435915421916"><tspan x="211.98435915421916">Esthétiques et</tspan><tspan x="211.98435915421916" dy="14">culturels</tspan></text><text opacity="1" text-anchor="end" style="font-family:verdana, sans-serif;font-size:16px;color:#666;cursor:default;line-height:14px;fill:#666;" y="188.91870042313832" x="251.29033117000427"><tspan x="251.29033117000427">Religieux</tspan></text><text opacity="1" text-anchor="end" style="font-family:verdana, sans-serif;font-size:16px;color:#666;cursor:default;line-height:14px;fill:#666;" y="162.47299921642207" x="297.0956293018224"><tspan x="297.0956293018224">Récréation</tspan></text><text opacity="1" text-anchor="middle" style="font-family:verdana, sans-serif;font-size:16px;color:#666;cursor:default;line-height:14px;fill:#666;" y="146.12865701434717" x="347.3983422231068"><tspan x="347.3983422231068">Volontariat</tspan></text><text text-anchor="middle" style="font-family:verdana, sans-serif;font-size:16px;color:#666;cursor:default;line-height:14px;fill:#666;" y="-9999" x="0"><tspan x="0">30</tspan></text></g><g  class="highcharts-axis-labels"><text opacity="1" text-anchor="end" style="font-family:'lucida grande', 'lucida sans unicode', verdana, arial, helvetica, sans-serif;font-size:11px;color:#666;cursor:default;line-height:14px;fill:#666;" y="389.5" x="397"><tspan x="397">0</tspan></text><text opacity="1" text-anchor="end" style="font-family:'lucida grande', 'lucida sans unicode', verdana, arial, helvetica, sans-serif;font-size:11px;color:#666;cursor:default;line-height:14px;fill:#666;" y="365.7" x="397"><tspan x="397">0.5</tspan></text><text opacity="1" text-anchor="end" style="font-family:'lucida grande', 'lucida sans unicode', verdana, arial, helvetica, sans-serif;font-size:11px;color:#666;cursor:default;line-height:14px;fill:#666;" y="341.9" x="397"><tspan x="397">1</tspan></text><text opacity="1" text-anchor="end" style="font-family:'lucida grande', 'lucida sans unicode', verdana, arial, helvetica, sans-serif;font-size:11px;color:#666;cursor:default;line-height:14px;fill:#666;" y="318.1" x="397"><tspan x="397">1.5</tspan></text><text opacity="1" text-anchor="end" style="font-family:'lucida grande', 'lucida sans unicode', verdana, arial, helvetica, sans-serif;font-size:11px;color:#666;cursor:default;line-height:14px;fill:#666;" y="294.3" x="397"><tspan x="397">2</tspan></text><text opacity="1" text-anchor="end" style="font-family:'lucida grande', 'lucida sans unicode', verdana, arial, helvetica, sans-serif;font-size:11px;color:#666;cursor:default;line-height:14px;fill:#666;" y="270.5" x="397"><tspan x="397">2.5</tspan></text><text opacity="1" text-anchor="end" style="font-family:'lucida grande', 'lucida sans unicode', verdana, arial, helvetica, sans-serif;font-size:11px;color:#666;cursor:default;line-height:14px;fill:#666;" y="246.7" x="397"><tspan x="397">3</tspan></text><text opacity="1" text-anchor="end" style="font-family:'lucida grande', 'lucida sans unicode', verdana, arial, helvetica, sans-serif;font-size:11px;color:#666;cursor:default;line-height:14px;fill:#666;" y="222.9" x="397"><tspan x="397">3.5</tspan></text><text opacity="1" text-anchor="end" style="font-family:'lucida grande', 'lucida sans unicode', verdana, arial, helvetica, sans-serif;font-size:11px;color:#666;cursor:default;line-height:14px;fill:#666;" y="199.1" x="397"><tspan x="397">4</tspan></text><text opacity="1" text-anchor="end" style="font-family:'lucida grande', 'lucida sans unicode', verdana, arial, helvetica, sans-serif;font-size:11px;color:#666;cursor:default;line-height:14px;fill:#666;" y="175.29999999999998" x="397"><tspan x="397">4.5</tspan></text><text text-anchor="end" style="font-family:'lucida grande', 'lucida sans unicode', verdana, arial, helvetica, sans-serif;font-size:11px;color:#666;cursor:default;line-height:14px;fill:#666;" y="-9999" x="0"><tspan x="0">5</tspan></text></g><g transform="translate(0,-999)" style="cursor:default;padding:0;white-space:nowrap;"  class="highcharts-tooltip"><rect transform="translate(1, 1)" stroke-width="5" stroke-opacity="0.049999999999999996" stroke="black"  fill-opacity="0.85" height="16" width="16" y="0.5" x="0.5" fill="none" ry="3" rx="3"></rect><rect transform="translate(1, 1)" stroke-width="3" stroke-opacity="0.09999999999999999" stroke="black"  fill-opacity="0.85" height="16" width="16" y="0.5" x="0.5" fill="none" ry="3" rx="3"></rect><rect transform="translate(1, 1)" stroke-width="1" stroke-opacity="0.15" stroke="black"  fill-opacity="0.85" height="16" width="16" y="0.5" x="0.5" fill="none" ry="3" rx="3"></rect><rect fill-opacity="0.85" height="16" width="16" y="0.5" x="0.5" fill="rgb(255,255,255)" ry="3" rx="3"></rect><text  style="font-family:'lucida grande', 'lucida sans unicode', verdana, arial, helvetica, sans-serif;font-size:12px;color:#333333;fill:#333333;" y="21" x="8"></text></g><text  text-anchor="end" style="font-family:'lucida grande', 'lucida sans unicode', verdana, arial, helvetica, sans-serif;font-size:9px;cursor:pointer;color:#909090;fill:#909090;" y="795" x="790"><tspan x="790">Highcharts.com</tspan></text></svg>