<svg xmlns:xlink="http://www.w3.org/1999/xlink" height="800" width="800" xmlns="http://www.w3.org/2000/svg" version="1.1"><desc>Created with Highcharts 3.0.7</desc><defs><clipPath id="highcharts-15"><rect height="641" width="560" y="0" x="0" fill="none"></rect></clipPath></defs><rect height="800" width="800" y="0" x="0" fill="#FFFFFF" ry="5" rx="5"></rect><g  class="highcharts-grid"><path opacity="1"  stroke-width="1" stroke="#C0C0C0" d="M 400 391.5 L 592.5460446612375 251.6071099543914" fill="none"></path><path opacity="1"  stroke-width="1" stroke="#C0C0C0" d="M 400 391.5 L 638 391.5" fill="none"></path><path opacity="1"  stroke-width="1" stroke="#C0C0C0" d="M 400 391.5 L 592.5460446612375 531.3928900456086" fill="none"></path><path opacity="1"  stroke-width="1" stroke="#C0C0C0" d="M 400 391.5 L 473.5460446612375 617.8514508782465" fill="none"></path><path opacity="1"  stroke-width="1" stroke="#C0C0C0" d="M 400 391.5 L 326.4539553387625 617.8514508782466" fill="none"></path><path opacity="1"  stroke-width="1" stroke="#C0C0C0" d="M 400 391.5 L 207.45395533876254 531.3928900456086" fill="none"></path><path opacity="1"  stroke-width="1" stroke="#C0C0C0" d="M 400 391.5 L 162 391.50000000000006" fill="none"></path><path opacity="1"  stroke-width="1" stroke="#C0C0C0" d="M 400 391.5 L 207.45395533876248 251.60710995439143" fill="none"></path><path opacity="1"  stroke-width="1" stroke="#C0C0C0" d="M 400 391.5 L 326.4539553387625 165.14854912175346" fill="none"></path><path opacity="1"  stroke-width="1" stroke="#C0C0C0" d="M 400 391.5 L 473.54604466123743 165.14854912175343" fill="none"></path><path opacity="1"  stroke-width="1" stroke="#C0C0C0" d="M 400 391.5 L 473.5460446612375 165.14854912175346" fill="none"></path><path  stroke-width="1" stroke="#C0C0C0" d="M 400 391.5 L 326.4539553387625 165.14854912175343" fill="none"></path></g><g  class="highcharts-grid"><path opacity="1"  stroke-width="1" stroke="#C0C0C0" d="M 400 367.7 A 23.8 23.8 0 1 1 399.97620000396665 367.700011899999 M 400 391.5 A 0 0 0 1 0 400 391.5 " fill="none"></path><path opacity="1"  stroke-width="1" stroke="#C0C0C0" d="M 400 343.9 A 47.6 47.6 0 1 1 399.9524000079333 343.900023799998 M 400 391.5 A 0 0 0 1 0 400 391.5 " fill="none"></path><path opacity="1"  stroke-width="1" stroke="#C0C0C0" d="M 400 320.1 A 71.4 71.4 0 1 1 399.92860001189996 320.100035699997 M 400 391.5 A 0 0 0 1 0 400 391.5 " fill="none"></path><path opacity="1"  stroke-width="1" stroke="#C0C0C0" d="M 400 296.3 A 95.2 95.2 0 1 1 399.9048000158666 296.30004759999605 M 400 391.5 A 0 0 0 1 0 400 391.5 " fill="none"></path><path opacity="1"  stroke-width="1" stroke="#C0C0C0" d="M 400 272.5 A 119 119 0 1 1 399.88100001983327 272.500059499995 M 400 391.5 A 0 0 0 1 0 400 391.5 " fill="none"></path><path opacity="1"  stroke-width="1" stroke="#C0C0C0" d="M 400 248.7 A 142.8 142.8 0 1 1 399.8572000237999 248.70007139999404 M 400 391.5 A 0 0 0 1 0 400 391.5 " fill="none"></path><path opacity="1"  stroke-width="1" stroke="#C0C0C0" d="M 400 224.9 A 166.6 166.6 0 1 1 399.8334000277666 224.90008329999307 M 400 391.5 A 0 0 0 1 0 400 391.5 " fill="none"></path><path opacity="1"  stroke-width="1" stroke="#C0C0C0" d="M 400 201.1 A 190.4 190.4 0 1 1 399.8096000317332 201.10009519999207 M 400 391.5 A 0 0 0 1 0 400 391.5 " fill="none"></path><path opacity="1"  stroke-width="1" stroke="#C0C0C0" d="M 400 177.29999999999998 A 214.20000000000002 214.20000000000002 0 1 1 399.7858000356999 177.30010709999107 M 400 391.5 A 0 0 0 1 0 400 391.5 " fill="none"></path><path opacity="1"  stroke-width="1" stroke="#C0C0C0" d="M 400 153.5 A 238 238 0 1 1 399.76200003966653 153.5001189999901 M 400 391.5 A 0 0 0 1 0 400 391.5 " fill="none"></path><path  stroke-width="1" stroke="#C0C0C0" fill="none"></path></g><g  class="highcharts-axis"><path visibility="visible"  stroke-width="1" stroke="#C0D0E0" d="M 400 153.5 A 238 238 0 1 1 399.76200003966653 153.5001189999901 M 400 391.5 A 0 0 0 1 0 400 391.5 " fill="none"></path></g><g  class="highcharts-axis"></g><g  class="highcharts-series-group"><g clip-path="url(#highcharts-15)" transform="translate(120,71) scale(1 1)"  visibility="visible" class="highcharts-series"><path stroke-linecap="round" stroke-linejoin="round"  stroke-width="2" stroke="#2f7ed8" d="M 280 229.26508 L 280 320.5 L 280 320.5 L 280 320.5 L 280 320.5 L 280 320.5 L 280 320.5 L 280 320.5 L 280 320.5 L 280 320.5 L 280 229.26508" fill="none"></path><path style="" class=" highcharts-tracker"  stroke-width="22" stroke="rgb(192,192,192)" stroke-opacity="0.0001" visibility="visible" stroke-linejoin="round" d="M 270 229.26508 L 280 229.26508 L 280 320.5 L 280 320.5 L 280 320.5 L 280 320.5 L 280 320.5 L 280 320.5 L 280 320.5 L 280 320.5 L 280 320.5 L 280 229.26508 L 290 229.26508" fill="none"></path></g><g clip-path="none" style="" transform="translate(120,71) scale(1 1)"  visibility="visible" class="highcharts-markers highcharts-tracker"><path d="M 280 316.5 C 285.328 316.5 285.328 324.5 280 324.5 C 274.672 324.5 274.672 316.5 280 316.5 Z" fill="#2f7ed8"></path><path d="M 280 316.5 C 285.328 316.5 285.328 324.5 280 324.5 C 274.672 324.5 274.672 316.5 280 316.5 Z" fill="#2f7ed8"></path><path d="M 280 316.5 C 285.328 316.5 285.328 324.5 280 324.5 C 274.672 324.5 274.672 316.5 280 316.5 Z" fill="#2f7ed8"></path><path d="M 280 316.5 C 285.328 316.5 285.328 324.5 280 324.5 C 274.672 324.5 274.672 316.5 280 316.5 Z" fill="#2f7ed8"></path><path d="M 280 316.5 C 285.328 316.5 285.328 324.5 280 324.5 C 274.672 324.5 274.672 316.5 280 316.5 Z" fill="#2f7ed8"></path><path d="M 280 316.5 C 285.328 316.5 285.328 324.5 280 324.5 C 274.672 324.5 274.672 316.5 280 316.5 Z" fill="#2f7ed8"></path><path d="M 280 316.5 C 285.328 316.5 285.328 324.5 280 324.5 C 274.672 324.5 274.672 316.5 280 316.5 Z" fill="#2f7ed8"></path><path d="M 280 316.5 C 285.328 316.5 285.328 324.5 280 324.5 C 274.672 324.5 274.672 316.5 280 316.5 Z" fill="#2f7ed8"></path><path d="M 280 316.5 C 285.328 316.5 285.328 324.5 280 324.5 C 274.672 324.5 274.672 316.5 280 316.5 Z" fill="#2f7ed8"></path><path d="M 280 225.26508 C 285.328 225.26508 285.328 233.26508 280 233.26508 C 274.672 233.26508 274.672 225.26508 280 225.26508 Z" fill="#2f7ed8"></path></g><g clip-path="url(#highcharts-15)" transform="translate(120,71) scale(1 1)"  visibility="visible" class="highcharts-series"><path stroke-linecap="round" stroke-linejoin="round"  stroke-width="2" stroke="#0d233a" d="M 280 209.43492000000003 L 280 320.5 L 280 320.5 L 280 320.5 L 280 320.5 L 280 320.5 L 280 320.5 L 280 320.5 L 280 320.5 L 280 320.5 L 280 209.43492000000003" fill="none"></path><path style="" class=" highcharts-tracker"  stroke-width="22" stroke="rgb(192,192,192)" stroke-opacity="0.0001" visibility="visible" stroke-linejoin="round" d="M 270 209.43492000000003 L 280 209.43492000000003 L 280 320.5 L 280 320.5 L 280 320.5 L 280 320.5 L 280 320.5 L 280 320.5 L 280 320.5 L 280 320.5 L 280 320.5 L 280 209.43492000000003 L 290 209.43492000000003" fill="none"></path></g><g clip-path="none" style="" transform="translate(120,71) scale(1 1)"  visibility="visible" class="highcharts-markers highcharts-tracker"><path d="M 280 316.5 L 284 320.5 280 324.5 276 320.5 Z" fill="#0d233a"></path><path d="M 280 316.5 L 284 320.5 280 324.5 276 320.5 Z" fill="#0d233a"></path><path d="M 280 316.5 L 284 320.5 280 324.5 276 320.5 Z" fill="#0d233a"></path><path d="M 280 316.5 L 284 320.5 280 324.5 276 320.5 Z" fill="#0d233a"></path><path d="M 280 316.5 L 284 320.5 280 324.5 276 320.5 Z" fill="#0d233a"></path><path d="M 280 316.5 L 284 320.5 280 324.5 276 320.5 Z" fill="#0d233a"></path><path d="M 280 316.5 L 284 320.5 280 324.5 276 320.5 Z" fill="#0d233a"></path><path d="M 280 316.5 L 284 320.5 280 324.5 276 320.5 Z" fill="#0d233a"></path><path d="M 280 316.5 L 284 320.5 280 324.5 276 320.5 Z" fill="#0d233a"></path><path d="M 280 205.43492000000003 L 284 209.43492000000003 280 213.43492000000003 276 209.43492000000003 Z" fill="#0d233a"></path></g></g><text  class="highcharts-title" text-anchor="middle" style="font-family:'lucida grande', 'lucida sans unicode', verdana, arial, helvetica, sans-serif;font-size:16px;color:#274b6d;fill:#274b6d;" y="25" x="400"><tspan x="400">Liste des interdépendances a la biodiversité et aux services écologiques</tspan></text><text  class="highcharts-subtitle" text-anchor="middle" style="font-family:'lucida grande', 'lucida sans unicode', verdana, arial, helvetica, sans-serif;font-size:12px;color:#4d759e;fill:#4d759e;" y="51" x="400"><tspan x="400">Agrégé</tspan></text><g transform="translate(291,722)"  class="highcharts-legend"><rect visibility="visible" stroke-width="1" stroke="#909090" height="62" width="217" y="0.5" x="0.5" fill="none" ry="5" rx="5"></rect><g ><g><g transform="translate(8,3)"  class="highcharts-legend-item"><path stroke-width="2" stroke="#2f7ed8" d="M 0 11 L 16 11" fill="none"></path><path d="M 8 7 C 13.328 7 13.328 15 8 15 C 2.6719999999999997 15 2.6719999999999997 7 8 7 Z" fill="#2f7ed8"></path><text  text-anchor="start" style="font-family:'lucida grande', 'lucida sans unicode', verdana, arial, helvetica, sans-serif;font-size:12px;cursor:pointer;color:#274b6d;fill:#274b6d;" y="15" x="21"><tspan x="21">Dépendances</tspan><tspan x="21" dy="16">aux SE</tspan></text></g><g transform="translate(114.93333435058594,3)"  class="highcharts-legend-item"><path stroke-width="2" stroke="#0d233a" d="M 0 11 L 16 11" fill="none"></path><path d="M 8 7 L 12 11 8 15 4 11 Z" fill="#0d233a"></path><text  text-anchor="start" style="font-family:'lucida grande', 'lucida sans unicode', verdana, arial, helvetica, sans-serif;font-size:12px;cursor:pointer;color:#274b6d;fill:#274b6d;" y="15" x="21"><tspan x="21">Transactions</tspan><tspan x="21" dy="16">monétaires</tspan><tspan x="21" dy="16">associées</tspan></text></g></g></g></g><g  class="highcharts-axis-labels"><text opacity="1" text-anchor="middle" style="font-family:verdana, sans-serif;font-size:16px;color:#666;cursor:default;line-height:14px;fill:#666;" y="133.6" x="400"><tspan x="400">Nourriture et</tspan><tspan x="400" dy="14">boissons</tspan></text><text opacity="1" text-anchor="start" style="font-family:verdana, sans-serif;font-size:16px;color:#666;cursor:default;line-height:14px;fill:#666;" y="188.9187004231383" x="548.7096688299957"><tspan x="548.7096688299957">Matériaux</tspan></text><text opacity="1" text-anchor="start" style="font-family:verdana, sans-serif;font-size:16px;color:#666;cursor:default;line-height:14px;fill:#666;" y="315.4187004231383" x="640.6172986226738"><tspan x="640.6172986226738">Energie</tspan></text><text opacity="1" text-anchor="start" style="font-family:verdana, sans-serif;font-size:16px;color:#666;cursor:default;line-height:14px;fill:#666;" y="450.7812995768617" x="640.6172986226738"><tspan x="640.6172986226738">Régulation des</tspan><tspan x="640.6172986226738" dy="14">processus </tspan><tspan x="640.6172986226738" dy="14">d’assimilation de</tspan><tspan x="640.6172986226738" dy="14">déchets</tspan></text><text opacity="1" text-anchor="start" style="font-family:verdana, sans-serif;font-size:16px;color:#666;cursor:default;line-height:14px;fill:#666;" y="591.2812995768617" x="548.7096688299957"><tspan x="548.7096688299957">Régulation des </tspan><tspan x="548.7096688299957" dy="14">risques naturels</tspan></text><text opacity="1" text-anchor="middle" style="font-family:verdana, sans-serif;font-size:16px;color:#666;cursor:default;line-height:14px;fill:#666;" y="632.6" x="400"><tspan x="400">Régulation des</tspan><tspan x="400" dy="14">conditions</tspan><tspan x="400" dy="14">biophysiques</tspan></text><text opacity="1" text-anchor="end" style="font-family:verdana, sans-serif;font-size:16px;color:#666;cursor:default;line-height:14px;fill:#666;" y="584.2812995768617" x="251.29033117000432"><tspan x="251.29033117000432">Régulation des</tspan><tspan x="251.29033117000432" dy="14">interactions </tspan><tspan x="251.29033117000432" dy="14">biologiques</tspan></text><text opacity="1" text-anchor="end" style="font-family:verdana, sans-serif;font-size:16px;color:#666;cursor:default;line-height:14px;fill:#666;" y="471.7812995768617" x="159.38270137732616"><tspan x="159.38270137732616">Informations</tspan></text><text opacity="1" text-anchor="end" style="font-family:verdana, sans-serif;font-size:16px;color:#666;cursor:default;line-height:14px;fill:#666;" y="315.4187004231384" x="159.38270137732613"><tspan x="159.38270137732613">Symboles</tspan></text><text opacity="1" text-anchor="end" style="font-family:verdana, sans-serif;font-size:16px;color:#666;cursor:default;line-height:14px;fill:#666;" y="188.91870042313832" x="251.29033117000427"><tspan x="251.29033117000427">Expériences</tspan></text><text text-anchor="middle" style="font-family:verdana, sans-serif;font-size:16px;color:#666;cursor:default;line-height:14px;fill:#666;" y="-9999" x="0"><tspan x="0">10</tspan></text></g><g  class="highcharts-axis-labels"><text opacity="1" text-anchor="end" style="font-family:'lucida grande', 'lucida sans unicode', verdana, arial, helvetica, sans-serif;font-size:11px;color:#666;cursor:default;line-height:14px;fill:#666;" y="389.5" x="397"><tspan x="397">0</tspan></text><text opacity="1" text-anchor="end" style="font-family:'lucida grande', 'lucida sans unicode', verdana, arial, helvetica, sans-serif;font-size:11px;color:#666;cursor:default;line-height:14px;fill:#666;" y="365.7" x="397"><tspan x="397">0.5</tspan></text><text opacity="1" text-anchor="end" style="font-family:'lucida grande', 'lucida sans unicode', verdana, arial, helvetica, sans-serif;font-size:11px;color:#666;cursor:default;line-height:14px;fill:#666;" y="341.9" x="397"><tspan x="397">1</tspan></text><text opacity="1" text-anchor="end" style="font-family:'lucida grande', 'lucida sans unicode', verdana, arial, helvetica, sans-serif;font-size:11px;color:#666;cursor:default;line-height:14px;fill:#666;" y="318.1" x="397"><tspan x="397">1.5</tspan></text><text opacity="1" text-anchor="end" style="font-family:'lucida grande', 'lucida sans unicode', verdana, arial, helvetica, sans-serif;font-size:11px;color:#666;cursor:default;line-height:14px;fill:#666;" y="294.3" x="397"><tspan x="397">2</tspan></text><text opacity="1" text-anchor="end" style="font-family:'lucida grande', 'lucida sans unicode', verdana, arial, helvetica, sans-serif;font-size:11px;color:#666;cursor:default;line-height:14px;fill:#666;" y="270.5" x="397"><tspan x="397">2.5</tspan></text><text opacity="1" text-anchor="end" style="font-family:'lucida grande', 'lucida sans unicode', verdana, arial, helvetica, sans-serif;font-size:11px;color:#666;cursor:default;line-height:14px;fill:#666;" y="246.7" x="397"><tspan x="397">3</tspan></text><text opacity="1" text-anchor="end" style="font-family:'lucida grande', 'lucida sans unicode', verdana, arial, helvetica, sans-serif;font-size:11px;color:#666;cursor:default;line-height:14px;fill:#666;" y="222.9" x="397"><tspan x="397">3.5</tspan></text><text opacity="1" text-anchor="end" style="font-family:'lucida grande', 'lucida sans unicode', verdana, arial, helvetica, sans-serif;font-size:11px;color:#666;cursor:default;line-height:14px;fill:#666;" y="199.1" x="397"><tspan x="397">4</tspan></text><text opacity="1" text-anchor="end" style="font-family:'lucida grande', 'lucida sans unicode', verdana, arial, helvetica, sans-serif;font-size:11px;color:#666;cursor:default;line-height:14px;fill:#666;" y="175.29999999999998" x="397"><tspan x="397">4.5</tspan></text><text text-anchor="end" style="font-family:'lucida grande', 'lucida sans unicode', verdana, arial, helvetica, sans-serif;font-size:11px;color:#666;cursor:default;line-height:14px;fill:#666;" y="-9999" x="0"><tspan x="0">5</tspan></text></g><g transform="translate(0,-999)" style="cursor:default;padding:0;white-space:nowrap;"  class="highcharts-tooltip"><rect transform="translate(1, 1)" stroke-width="5" stroke-opacity="0.049999999999999996" stroke="black"  fill-opacity="0.85" height="16" width="16" y="0.5" x="0.5" fill="none" ry="3" rx="3"></rect><rect transform="translate(1, 1)" stroke-width="3" stroke-opacity="0.09999999999999999" stroke="black"  fill-opacity="0.85" height="16" width="16" y="0.5" x="0.5" fill="none" ry="3" rx="3"></rect><rect transform="translate(1, 1)" stroke-width="1" stroke-opacity="0.15" stroke="black"  fill-opacity="0.85" height="16" width="16" y="0.5" x="0.5" fill="none" ry="3" rx="3"></rect><rect fill-opacity="0.85" height="16" width="16" y="0.5" x="0.5" fill="rgb(255,255,255)" ry="3" rx="3"></rect><text  style="font-family:'lucida grande', 'lucida sans unicode', verdana, arial, helvetica, sans-serif;font-size:12px;color:#333333;fill:#333333;" y="21" x="8"></text></g><text  text-anchor="end" style="font-family:'lucida grande', 'lucida sans unicode', verdana, arial, helvetica, sans-serif;font-size:9px;cursor:pointer;color:#909090;fill:#909090;" y="795" x="790"><tspan x="790">Highcharts.com</tspan></text></svg>